<?xml version="1.0" encoding="UTF-8"?>
<svg id="Layer_1" data-name="Layer 1" xmlns="http://www.w3.org/2000/svg" viewBox="0 0 640 502.32">
  <defs>
    <style>
      .cls-1 {
        fill: gray;
      }

      .cls-2 {
        fill: #cceffb;
        stroke: #00afec;
      }

      .cls-2, .cls-3, .cls-4 {
        stroke-miterlimit: 10;
      }

      .cls-3 {
        stroke: #000;
      }

      .cls-3, .cls-4 {
        fill: none;
      }

      .cls-4 {
        stroke: gray;
      }
    </style>
  </defs>
  <g>
    <polyline class="cls-4" points="304 418.12 304 427.3 417.24 427.3 417.24 456.4"/>
    <polygon class="cls-1" points="414.33 454.42 417.24 465.26 420.15 454.42 414.33 454.42"/>
  </g>
  <g>
    <polyline class="cls-4" points="304 113.6 304 122.94 361.3 122.94 361.3 153.06"/>
    <polygon class="cls-1" points="358.4 151.08 361.3 161.92 364.21 151.08 358.4 151.08"/>
  </g>
  <g>
    <polyline class="cls-4" points="304 113.6 304 122.94 246.69 122.94 246.69 153.06"/>
    <polygon class="cls-1" points="243.78 151.08 246.69 161.92 249.6 151.08 243.78 151.08"/>
  </g>
  <g>
    <polyline class="cls-4" points="531.99 113.6 531.99 122.94 589.29 122.94 589.29 153.06"/>
    <polygon class="cls-1" points="586.39 151.08 589.29 161.92 592.2 151.08 586.39 151.08"/>
  </g>
  <g>
    <polyline class="cls-4" points="531.99 113.6 531.99 122.94 474.68 122.94 474.68 153.06"/>
    <polygon class="cls-1" points="471.78 151.08 474.68 161.92 477.59 151.08 471.78 151.08"/>
  </g>
  <g>
    <polyline class="cls-4" points="589.29 342.4 589.29 351.88 531.99 351.88 531.99 380.69"/>
    <polygon class="cls-1" points="529.08 378.71 531.99 389.55 534.89 378.71 529.08 378.71"/>
  </g>
  <g>
    <polyline class="cls-4" points="474.68 342.4 474.68 351.88 531.99 351.88 531.99 380.69"/>
    <polygon class="cls-1" points="529.08 378.71 531.99 389.55 534.89 378.71 529.08 378.71"/>
  </g>
  <g>
    <polyline class="cls-4" points="361.03 342.4 361.03 351.88 303.73 351.88 303.73 380.69"/>
    <polygon class="cls-1" points="300.82 378.71 303.73 389.55 306.63 378.71 300.82 378.71"/>
  </g>
  <g>
    <polyline class="cls-4" points="248.44 342.4 248.44 351.88 303.73 351.88 303.73 380.69"/>
    <polygon class="cls-1" points="300.82 378.71 303.73 389.55 306.63 378.71 300.82 378.71"/>
  </g>
  <g>
    <polyline class="cls-4" points="586.02 189.81 586.02 199.15 614.82 199.15 614.82 228"/>
    <polygon class="cls-1" points="611.92 226.02 614.82 236.86 617.73 226.02 611.92 226.02"/>
  </g>
  <g>
    <polyline class="cls-4" points="586.02 189.81 586.02 199.15 557.22 199.15 557.22 228"/>
    <polygon class="cls-1" points="554.31 226.02 557.22 236.86 560.12 226.02 554.31 226.02"/>
  </g>
  <g>
    <polyline class="cls-4" points="474.63 189.81 474.63 199.15 503.43 199.15 503.43 228"/>
    <polygon class="cls-1" points="500.53 226.02 503.43 236.86 506.34 226.02 500.53 226.02"/>
  </g>
  <g>
    <polyline class="cls-4" points="474.63 189.81 474.63 199.15 445.83 199.15 445.83 228"/>
    <polygon class="cls-1" points="442.92 226.02 445.83 236.86 448.73 226.02 442.92 226.02"/>
  </g>
  <g>
    <polyline class="cls-4" points="361.3 189.81 361.3 199.15 390.1 199.15 390.1 228"/>
    <polygon class="cls-1" points="387.2 226.02 390.1 236.86 393.01 226.02 387.2 226.02"/>
  </g>
  <g>
    <polyline class="cls-4" points="361.3 189.81 361.3 199.15 332.5 199.15 332.5 228"/>
    <polygon class="cls-1" points="329.59 226.02 332.5 236.86 335.41 226.02 329.59 226.02"/>
  </g>
  <g>
    <polyline class="cls-4" points="248.44 189.81 248.44 199.15 277.25 199.15 277.25 228"/>
    <polygon class="cls-1" points="274.34 226.02 277.25 236.86 280.15 226.02 274.34 226.02"/>
  </g>
  <g>
    <polyline class="cls-4" points="248.44 189.81 248.44 199.15 219.64 199.15 219.64 228"/>
    <polygon class="cls-1" points="216.74 226.02 219.64 236.86 222.55 226.02 216.74 226.02"/>
  </g>
  <g>
    <polyline class="cls-4" points="219.77 266.11 219.77 275.91 248.57 275.91 248.57 304.97"/>
    <polygon class="cls-1" points="245.66 302.99 248.57 313.83 251.47 302.99 245.66 302.99"/>
  </g>
  <g>
    <polyline class="cls-4" points="277.37 266.11 277.37 275.91 248.57 275.91 248.57 304.97"/>
    <polygon class="cls-1" points="245.66 302.99 248.57 313.83 251.47 302.99 245.66 302.99"/>
  </g>
  <g>
    <polyline class="cls-4" points="332.5 266.11 332.5 275.91 361.3 275.91 361.3 304.97"/>
    <polygon class="cls-1" points="358.4 302.99 361.3 313.83 364.21 302.99 358.4 302.99"/>
  </g>
  <g>
    <polyline class="cls-4" points="390.1 266.11 390.1 275.91 361.3 275.91 361.3 304.97"/>
    <polygon class="cls-1" points="358.4 302.99 361.3 313.83 364.21 302.99 358.4 302.99"/>
  </g>
  <g>
    <polyline class="cls-4" points="445.83 266.11 445.83 275.91 474.63 275.91 474.63 304.97"/>
    <polygon class="cls-1" points="471.73 302.99 474.63 313.83 477.54 302.99 471.73 302.99"/>
  </g>
  <g>
    <polyline class="cls-4" points="503.43 266.11 503.43 275.91 474.63 275.91 474.63 304.97"/>
    <polygon class="cls-1" points="471.73 302.99 474.63 313.83 477.54 302.99 471.73 302.99"/>
  </g>
  <g>
    <polyline class="cls-4" points="557.73 266.11 557.73 275.91 586.53 275.91 586.53 304.97"/>
    <polygon class="cls-1" points="583.62 302.99 586.53 313.83 589.43 302.99 583.62 302.99"/>
  </g>
  <g>
    <polyline class="cls-4" points="615.33 266.11 615.33 275.91 586.53 275.91 586.53 304.97"/>
    <polygon class="cls-1" points="583.62 302.99 586.53 313.83 589.43 302.99 583.62 302.99"/>
  </g>
  <g>
    <polyline class="cls-4" points="417.24 37.06 417.24 46.2 530.48 46.2 530.48 76.17"/>
    <polygon class="cls-1" points="527.58 74.19 530.48 85.03 533.39 74.19 527.58 74.19"/>
  </g>
  <g>
    <rect class="cls-2" x="286.1" y="8.49" width="32.78" height="28.57"/>
    <path d="m305.15,15.39v1.53h-.33c-1.41.03-2.53.44-3.36,1.25s-1.32,1.94-1.45,3.41c.75-.86,1.77-1.29,3.07-1.29s2.22.44,2.96,1.31,1.11,2,1.11,3.38c0,1.46-.4,2.64-1.2,3.52s-1.87,1.32-3.21,1.32-2.46-.52-3.31-1.57-1.27-2.39-1.27-4.04v-.69c0-2.62.56-4.62,1.67-6s2.78-2.09,4.99-2.12h.32Zm-2.37,6.41c-.62,0-1.19.19-1.71.56s-.88.84-1.08,1.4v.66c0,1.17.26,2.12.79,2.83s1.18,1.07,1.97,1.07,1.45-.3,1.92-.9.7-1.38.7-2.35-.24-1.77-.71-2.37-1.1-.9-1.88-.9Z"/>
    <rect class="cls-2" x="318.88" y="8.49" width="32.78" height="28.57"/>
    <path d="m333.47,21.64h1.36c.85-.01,1.52-.24,2.01-.67s.73-1.03.73-1.77c0-1.67-.83-2.5-2.49-2.5-.78,0-1.4.22-1.87.67s-.7,1.04-.7,1.77h-1.81c0-1.13.41-2.06,1.24-2.81s1.87-1.12,3.14-1.12c1.34,0,2.39.35,3.15,1.06s1.14,1.7,1.14,2.96c0,.62-.2,1.22-.6,1.8s-.95,1.01-1.64,1.3c.78.25,1.38.66,1.81,1.23s.64,1.27.64,2.1c0,1.28-.42,2.29-1.25,3.04s-1.92,1.12-3.25,1.12-2.42-.36-3.26-1.08-1.25-1.68-1.25-2.86h1.82c0,.75.24,1.35.73,1.8s1.14.67,1.96.67c.87,0,1.54-.23,2-.68s.69-1.11.69-1.96-.25-1.46-.76-1.9-1.24-.67-2.2-.68h-1.36v-1.47Z"/>
    <rect class="cls-2" x="351.67" y="8.49" width="32.78" height="28.57"/>
    <path d="m370.57,29.62h-1.82v-12.04l-3.64,1.34v-1.64l5.18-1.94h.28v14.29Z"/>
    <rect class="cls-2" x="384.45" y="8.49" width="32.78" height="28.57"/>
    <path d="m405.04,19.12c0,.71-.19,1.34-.56,1.89s-.88.99-1.52,1.3c.74.32,1.33.78,1.76,1.4s.65,1.31.65,2.08c0,1.23-.42,2.21-1.25,2.94s-1.92,1.09-3.28,1.09-2.46-.37-3.29-1.1-1.24-1.71-1.24-2.93c0-.77.21-1.46.63-2.08s1-1.09,1.74-1.41c-.63-.31-1.13-.75-1.49-1.3s-.55-1.18-.55-1.88c0-1.2.38-2.15,1.15-2.85s1.78-1.05,3.04-1.05,2.26.35,3.03,1.05,1.16,1.65,1.16,2.85Zm-1.47,6.63c0-.79-.25-1.44-.76-1.94s-1.16-.75-1.98-.75-1.47.25-1.96.74-.74,1.15-.74,1.95.24,1.44.72,1.9,1.14.69,2,.69,1.51-.23,1.99-.7.72-1.1.72-1.9Zm-2.71-9.05c-.71,0-1.28.22-1.72.66s-.66,1.04-.66,1.79.22,1.31.65,1.75,1.01.67,1.73.67,1.3-.22,1.73-.67.65-1.03.65-1.75-.22-1.31-.67-1.77-1.02-.68-1.71-.68Z"/>
    <rect class="cls-2" x="417.24" y="8.49" width="32.78" height="28.57"/>
    <path d="m438.38,16.42l-5.89,13.2h-1.89l5.87-12.73h-7.7v-1.48h9.61v1.02Z"/>
    <rect class="cls-2" x="450.02" y="8.49" width="32.78" height="28.57"/>
    <path d="m471.3,29.62h-9.32v-1.3l4.92-5.47c.73-.83,1.23-1.5,1.51-2.02s.42-1.05.42-1.61c0-.74-.22-1.35-.67-1.83s-1.05-.71-1.8-.71c-.9,0-1.6.26-2.09.77s-.75,1.22-.75,2.13h-1.81c0-1.31.42-2.37,1.26-3.17s1.97-1.21,3.38-1.21c1.32,0,2.37.35,3.13,1.04s1.15,1.62,1.15,2.77c0,1.4-.89,3.07-2.68,5l-3.81,4.13h7.14v1.47Z"/>
    <rect class="cls-2" x="482.81" y="8.49" width="32.78" height="28.57"/>
    <path d="m495.6,22.49l.72-7.09h7.29v1.67h-5.75l-.43,3.88c.7-.41,1.49-.62,2.37-.62,1.3,0,2.32.43,3.09,1.28s1.14,2.01,1.14,3.47-.4,2.62-1.19,3.46-1.9,1.26-3.32,1.26c-1.26,0-2.28-.35-3.08-1.04s-1.25-1.66-1.36-2.89h1.71c.11.81.4,1.43.87,1.84s1.09.62,1.86.62c.84,0,1.5-.29,1.98-.86s.72-1.36.72-2.37c0-.95-.26-1.71-.78-2.29s-1.21-.86-2.07-.86c-.79,0-1.41.17-1.86.52l-.48.39-1.45-.37Z"/>
    <rect class="cls-2" x="515.59" y="8.49" width="32.78" height="28.57"/>
    <path d="m535.18,24.85h1.97v1.47h-1.97v3.3h-1.82v-3.3h-6.47v-1.06l6.37-9.85h1.92v9.44Zm-6.24,0h4.42v-6.97l-.21.39-4.21,6.58Z"/>
  </g>
  <g>
    <rect class="cls-2" x="286.1" y="465.26" width="32.78" height="28.57"/>
    <path d="m304,486.39h-1.82v-12.04l-3.64,1.34v-1.64l5.18-1.94h.28v14.29Z"/>
    <rect class="cls-2" x="318.88" y="465.26" width="32.78" height="28.57"/>
    <path d="m340.16,486.39h-9.32v-1.3l4.92-5.47c.73-.83,1.23-1.5,1.51-2.02s.42-1.05.42-1.61c0-.74-.22-1.35-.67-1.83s-1.05-.71-1.8-.71c-.9,0-1.6.26-2.09.77s-.75,1.22-.75,2.13h-1.81c0-1.31.42-2.37,1.26-3.17s1.97-1.21,3.38-1.21c1.32,0,2.37.35,3.13,1.04s1.15,1.62,1.15,2.77c0,1.4-.89,3.07-2.68,5l-3.81,4.13h7.14v1.47Z"/>
    <rect class="cls-2" x="351.67" y="465.26" width="32.78" height="28.57"/>
    <path d="m367.26,478.4h1.36c.85-.01,1.52-.24,2.01-.67s.73-1.03.73-1.77c0-1.67-.83-2.5-2.49-2.5-.78,0-1.4.22-1.87.67s-.7,1.04-.7,1.77h-1.81c0-1.13.41-2.06,1.24-2.81s1.87-1.12,3.14-1.12c1.34,0,2.39.35,3.15,1.06s1.14,1.7,1.14,2.96c0,.62-.2,1.22-.6,1.8s-.95,1.01-1.64,1.3c.78.25,1.38.66,1.81,1.23s.64,1.27.64,2.1c0,1.28-.42,2.29-1.25,3.04s-1.92,1.12-3.25,1.12-2.42-.36-3.26-1.08-1.25-1.68-1.25-2.86h1.82c0,.75.24,1.35.73,1.8s1.14.67,1.96.67c.87,0,1.54-.23,2-.68s.69-1.11.69-1.96-.25-1.46-.76-1.9-1.24-.67-2.2-.68h-1.36v-1.47Z"/>
    <rect class="cls-2" x="384.45" y="465.26" width="32.78" height="28.57"/>
    <path d="m404.04,481.62h1.97v1.47h-1.97v3.3h-1.82v-3.3h-6.47v-1.06l6.37-9.85h1.92v9.44Zm-6.24,0h4.42v-6.97l-.21.39-4.21,6.58Z"/>
    <rect class="cls-2" x="417.24" y="465.26" width="32.78" height="28.57"/>
    <path d="m430.03,479.26l.72-7.09h7.29v1.67h-5.75l-.43,3.88c.7-.41,1.49-.62,2.37-.62,1.3,0,2.32.43,3.09,1.28s1.14,2.01,1.14,3.47-.4,2.62-1.19,3.46-1.9,1.26-3.32,1.26c-1.26,0-2.28-.35-3.08-1.04s-1.25-1.66-1.36-2.89h1.71c.11.81.4,1.43.87,1.84s1.09.62,1.86.62c.84,0,1.5-.29,1.98-.86s.72-1.36.72-2.37c0-.95-.26-1.71-.78-2.29s-1.21-.86-2.07-.86c-.79,0-1.41.17-1.86.52l-.48.39-1.45-.37Z"/>
    <rect class="cls-2" x="450.02" y="465.26" width="32.78" height="28.57"/>
    <path d="m469.07,472.16v1.53h-.33c-1.41.03-2.53.44-3.36,1.25s-1.32,1.94-1.45,3.41c.75-.86,1.77-1.29,3.07-1.29s2.22.44,2.96,1.31,1.11,2,1.11,3.38c0,1.46-.4,2.64-1.2,3.52s-1.87,1.32-3.21,1.32-2.46-.52-3.31-1.57-1.27-2.39-1.27-4.04v-.69c0-2.62.56-4.62,1.67-6s2.78-2.09,4.99-2.12h.32Zm-2.37,6.41c-.62,0-1.19.19-1.71.56s-.88.84-1.08,1.4v.66c0,1.17.26,2.12.79,2.83s1.18,1.07,1.97,1.07,1.45-.3,1.92-.9.7-1.38.7-2.35-.24-1.77-.71-2.37-1.1-.9-1.88-.9Z"/>
    <rect class="cls-2" x="482.81" y="465.26" width="32.78" height="28.57"/>
    <path d="m503.95,473.19l-5.89,13.2h-1.89l5.87-12.73h-7.7v-1.48h9.61v1.02Z"/>
    <rect class="cls-2" x="515.59" y="465.26" width="32.78" height="28.57"/>
    <path d="m536.18,475.88c0,.71-.19,1.34-.56,1.89s-.88.99-1.52,1.3c.74.32,1.33.78,1.76,1.4s.65,1.31.65,2.08c0,1.23-.42,2.21-1.25,2.94s-1.92,1.09-3.28,1.09-2.46-.37-3.29-1.1-1.24-1.71-1.24-2.93c0-.77.21-1.46.63-2.08s1-1.09,1.74-1.41c-.63-.31-1.13-.75-1.49-1.3s-.55-1.18-.55-1.88c0-1.2.38-2.15,1.15-2.85s1.78-1.05,3.04-1.05,2.26.35,3.03,1.05,1.16,1.65,1.16,2.85Zm-1.47,6.63c0-.79-.25-1.44-.76-1.94s-1.16-.75-1.98-.75-1.47.25-1.96.74-.74,1.15-.74,1.95.24,1.44.72,1.9,1.14.69,2,.69,1.51-.23,1.99-.7.72-1.1.72-1.9Zm-2.71-9.05c-.71,0-1.28.22-1.72.66s-.66,1.04-.66,1.79.22,1.31.65,1.75,1.01.67,1.73.67,1.3-.22,1.73-.67.65-1.03.65-1.75-.22-1.31-.67-1.77-1.02-.68-1.71-.68Z"/>
  </g>
  <g>
    <g>
      <rect class="cls-2" x="466.42" y="85.03" width="32.78" height="28.57"/>
      <path d="m487.56,92.95l-5.89,13.2h-1.89l5.87-12.73h-7.7v-1.48h9.61v1.02Z"/>
      <rect class="cls-2" x="499.2" y="85.03" width="32.78" height="28.57"/>
      <path d="m520.48,106.16h-9.32v-1.3l4.92-5.47c.73-.83,1.23-1.5,1.51-2.02s.42-1.05.42-1.61c0-.74-.22-1.35-.67-1.83s-1.05-.71-1.8-.71c-.9,0-1.6.26-2.09.77s-.75,1.22-.75,2.13h-1.81c0-1.31.42-2.37,1.26-3.17s1.97-1.21,3.38-1.21c1.32,0,2.37.35,3.13,1.04s1.15,1.62,1.15,2.77c0,1.4-.89,3.07-2.68,5l-3.81,4.13h7.14v1.47Z"/>
      <rect class="cls-2" x="531.99" y="85.03" width="32.78" height="28.57"/>
      <path d="m544.78,99.03l.72-7.09h7.29v1.67h-5.75l-.43,3.88c.7-.41,1.49-.62,2.37-.62,1.3,0,2.32.43,3.09,1.28s1.14,2.01,1.14,3.47-.4,2.62-1.19,3.46-1.9,1.26-3.32,1.26c-1.26,0-2.28-.35-3.08-1.04s-1.25-1.66-1.36-2.89h1.71c.11.81.4,1.43.87,1.84s1.09.62,1.86.62c.84,0,1.5-.29,1.98-.86s.72-1.36.72-2.37c0-.95-.26-1.71-.78-2.29s-1.21-.86-2.07-.86c-.79,0-1.41.17-1.86.52l-.48.39-1.45-.37Z"/>
      <rect class="cls-2" x="564.77" y="85.03" width="32.78" height="28.57"/>
      <path d="m584.36,101.38h1.97v1.47h-1.97v3.3h-1.82v-3.3h-6.47v-1.06l6.37-9.85h1.92v9.44Zm-6.24,0h4.42v-6.97l-.21.39-4.21,6.58Z"/>
    </g>
    <g>
      <rect class="cls-2" x="238.43" y="85.03" width="32.78" height="28.57"/>
      <path d="m257.47,91.93v1.53h-.33c-1.41.03-2.53.44-3.36,1.25s-1.32,1.94-1.45,3.41c.75-.86,1.77-1.29,3.07-1.29s2.22.44,2.96,1.31,1.11,2,1.11,3.38c0,1.46-.4,2.64-1.2,3.52s-1.87,1.32-3.21,1.32-2.46-.52-3.31-1.57-1.27-2.39-1.27-4.04v-.69c0-2.62.56-4.62,1.67-6s2.78-2.09,4.99-2.12h.32Zm-2.37,6.41c-.62,0-1.19.19-1.71.56s-.88.84-1.08,1.4v.66c0,1.17.26,2.12.79,2.83s1.18,1.07,1.97,1.07,1.45-.3,1.92-.9.7-1.38.7-2.35-.24-1.77-.71-2.37-1.1-.9-1.88-.9Z"/>
      <rect class="cls-2" x="271.21" y="85.03" width="32.78" height="28.57"/>
      <path d="m285.8,98.17h1.36c.85-.01,1.52-.24,2.01-.67s.73-1.03.73-1.77c0-1.67-.83-2.5-2.49-2.5-.78,0-1.4.22-1.87.67s-.7,1.04-.7,1.77h-1.81c0-1.13.41-2.06,1.24-2.81s1.87-1.12,3.14-1.12c1.34,0,2.39.35,3.15,1.06s1.14,1.7,1.14,2.96c0,.62-.2,1.22-.6,1.8s-.95,1.01-1.64,1.3c.78.25,1.38.66,1.81,1.23s.64,1.27.64,2.1c0,1.28-.42,2.29-1.25,3.04s-1.92,1.12-3.25,1.12-2.42-.36-3.26-1.08-1.25-1.68-1.25-2.86h1.82c0,.75.24,1.35.73,1.8s1.14.67,1.96.67c.87,0,1.54-.23,2-.68s.69-1.11.69-1.96-.25-1.46-.76-1.9-1.24-.67-2.2-.68h-1.36v-1.47Z"/>
      <rect class="cls-2" x="304" y="85.03" width="32.78" height="28.57"/>
      <path d="m322.89,106.16h-1.82v-12.04l-3.64,1.34v-1.64l5.18-1.94h.28v14.29Z"/>
      <rect class="cls-2" x="336.78" y="85.03" width="32.78" height="28.57"/>
      <path d="m357.36,95.65c0,.71-.19,1.34-.56,1.89s-.88.99-1.52,1.3c.74.32,1.33.78,1.76,1.4s.65,1.31.65,2.08c0,1.23-.42,2.21-1.25,2.94s-1.92,1.09-3.28,1.09-2.46-.37-3.29-1.1-1.24-1.71-1.24-2.93c0-.77.21-1.46.63-2.08s1-1.09,1.74-1.41c-.63-.31-1.13-.75-1.49-1.3s-.55-1.18-.55-1.88c0-1.2.38-2.15,1.15-2.85s1.78-1.05,3.04-1.05,2.26.35,3.03,1.05,1.16,1.65,1.16,2.85Zm-1.47,6.63c0-.79-.25-1.44-.76-1.94s-1.16-.75-1.98-.75-1.47.25-1.96.74-.74,1.15-.74,1.95.24,1.44.72,1.9,1.14.69,2,.69,1.51-.23,1.99-.7.72-1.1.72-1.9Zm-2.71-9.05c-.71,0-1.28.22-1.72.66s-.66,1.04-.66,1.79.22,1.31.65,1.75,1.01.67,1.73.67,1.3-.22,1.73-.67.65-1.03.65-1.75-.22-1.31-.67-1.77-1.02-.68-1.71-.68Z"/>
    </g>
  </g>
  <g>
    <g>
      <rect class="cls-2" x="441.85" y="161.92" width="32.78" height="28.57"/>
      <path d="m462.99,169.84l-5.89,13.2h-1.89l5.87-12.73h-7.7v-1.48h9.61v1.02Z"/>
      <rect class="cls-2" x="474.63" y="161.92" width="32.78" height="28.57"/>
      <path d="m495.91,183.05h-9.32v-1.3l4.92-5.47c.73-.83,1.23-1.5,1.51-2.02s.42-1.05.42-1.61c0-.74-.22-1.35-.67-1.83s-1.05-.71-1.8-.71c-.9,0-1.6.26-2.09.77s-.75,1.22-.75,2.13h-1.81c0-1.31.42-2.37,1.26-3.17s1.97-1.21,3.38-1.21c1.32,0,2.37.35,3.13,1.04s1.15,1.62,1.15,2.77c0,1.4-.89,3.07-2.68,5l-3.81,4.13h7.14v1.47Z"/>
    </g>
    <g>
      <rect class="cls-2" x="553.25" y="161.92" width="32.78" height="28.57"/>
      <path d="m566.04,174.92l.72-7.09h7.29v1.67h-5.75l-.43,3.88c.7-.41,1.49-.62,2.37-.62,1.3,0,2.32.43,3.09,1.28s1.14,2.01,1.14,3.47-.4,2.62-1.19,3.46-1.9,1.26-3.32,1.26c-1.26,0-2.28-.35-3.08-1.04s-1.25-1.66-1.36-2.89h1.71c.11.81.4,1.43.87,1.84s1.09.62,1.86.62c.84,0,1.5-.29,1.98-.86s.72-1.36.72-2.37c0-.95-.26-1.71-.78-2.29s-1.21-.86-2.07-.86c-.79,0-1.41.17-1.86.52l-.48.39-1.45-.37Z"/>
      <rect class="cls-2" x="586.03" y="161.92" width="32.78" height="28.57"/>
      <path d="m605.62,177.27h1.97v1.47h-1.97v3.3h-1.82v-3.3h-6.47v-1.06l6.37-9.85h1.92v9.44Zm-6.24,0h4.42v-6.97l-.21.39-4.21,6.58Z"/>
    </g>
    <g>
      <rect class="cls-2" x="215.66" y="161.92" width="32.78" height="28.57"/>
      <path d="m234.71,168.82v1.53h-.33c-1.41.03-2.53.44-3.36,1.25s-1.32,1.94-1.45,3.41c.75-.86,1.77-1.29,3.07-1.29s2.22.44,2.96,1.31,1.11,2,1.11,3.38c0,1.46-.4,2.64-1.2,3.52s-1.87,1.32-3.21,1.32-2.46-.52-3.31-1.57-1.27-2.39-1.27-4.04v-.69c0-2.62.56-4.62,1.67-6s2.78-2.09,4.99-2.12h.32Zm-2.37,6.41c-.62,0-1.19.19-1.71.56s-.88.84-1.08,1.4v.66c0,1.17.26,2.12.79,2.83s1.18,1.07,1.97,1.07,1.45-.3,1.92-.9.7-1.38.7-2.35-.24-1.77-.71-2.37-1.1-.9-1.88-.9Z"/>
      <rect class="cls-2" x="248.44" y="161.92" width="32.78" height="28.57"/>
      <path d="m263.03,175.06h1.36c.85-.01,1.52-.24,2.01-.67s.73-1.03.73-1.77c0-1.67-.83-2.5-2.49-2.5-.78,0-1.4.22-1.87.67s-.7,1.04-.7,1.77h-1.81c0-1.13.41-2.06,1.24-2.81s1.87-1.12,3.14-1.12c1.34,0,2.39.35,3.15,1.06s1.14,1.7,1.14,2.96c0,.62-.2,1.22-.6,1.8s-.95,1.01-1.64,1.3c.78.25,1.38.66,1.81,1.23s.64,1.27.64,2.1c0,1.28-.42,2.29-1.25,3.04s-1.92,1.12-3.25,1.12-2.42-.36-3.26-1.08-1.25-1.68-1.25-2.86h1.82c0,.75.24,1.35.73,1.8s1.14.67,1.96.67c.87,0,1.54-.23,2-.68s.69-1.11.69-1.96-.25-1.46-.76-1.9-1.24-.67-2.2-.68h-1.36v-1.47Z"/>
    </g>
    <g>
      <rect class="cls-2" x="328.25" y="161.92" width="32.78" height="28.57"/>
      <path d="m347.14,183.05h-1.82v-12.04l-3.64,1.34v-1.64l5.18-1.94h.28v14.29Z"/>
      <rect class="cls-2" x="361.03" y="161.92" width="32.78" height="28.57"/>
      <path d="m381.61,172.54c0,.71-.19,1.34-.56,1.89s-.88.99-1.52,1.3c.74.32,1.33.78,1.76,1.4s.65,1.31.65,2.08c0,1.23-.42,2.21-1.25,2.94s-1.92,1.09-3.28,1.09-2.46-.37-3.29-1.1-1.24-1.71-1.24-2.93c0-.77.21-1.46.63-2.08s1-1.09,1.74-1.41c-.63-.31-1.13-.75-1.49-1.3s-.55-1.18-.55-1.88c0-1.2.38-2.15,1.15-2.85s1.78-1.05,3.04-1.05,2.26.35,3.03,1.05,1.16,1.65,1.16,2.85Zm-1.47,6.63c0-.79-.25-1.44-.76-1.94s-1.16-.75-1.98-.75-1.47.25-1.96.74-.74,1.15-.74,1.95.24,1.44.72,1.9,1.14.69,2,.69,1.51-.23,1.99-.7.72-1.1.72-1.9Zm-2.71-9.05c-.71,0-1.28.22-1.72.66s-.66,1.04-.66,1.79.22,1.31.65,1.75,1.01.67,1.73.67,1.3-.22,1.73-.67.65-1.03.65-1.75-.22-1.31-.67-1.77-1.02-.68-1.71-.68Z"/>
    </g>
  </g>
  <g>
    <g>
      <rect class="cls-2" x="429.07" y="237.53" width="32.78" height="28.57"/>
      <path d="m450.21,245.46l-5.89,13.2h-1.89l5.87-12.73h-7.7v-1.48h9.61v1.02Z"/>
    </g>
    <g>
      <rect class="cls-2" x="485.52" y="237.53" width="32.78" height="28.57"/>
      <path d="m506.8,257.66h-9.32v-1.3l4.92-5.47c.73-.83,1.23-1.5,1.51-2.02s.42-1.05.42-1.61c0-.74-.22-1.35-.67-1.83s-1.05-.71-1.8-.71c-.9,0-1.6.26-2.09.77s-.75,1.22-.75,2.13h-1.81c0-1.31.42-2.37,1.26-3.17s1.97-1.21,3.38-1.21c1.32,0,2.37.35,3.13,1.04s1.15,1.62,1.15,2.77c0,1.4-.89,3.07-2.68,5l-3.81,4.13h7.14v1.47Z"/>
    </g>
    <g>
      <rect class="cls-2" x="541.98" y="237.53" width="32.78" height="28.57"/>
      <path d="m554.77,250.54l.72-7.09h7.29v1.67h-5.75l-.43,3.88c.7-.41,1.49-.62,2.37-.62,1.3,0,2.32.43,3.09,1.28s1.14,2.01,1.14,3.47-.4,2.62-1.19,3.46-1.9,1.26-3.32,1.26c-1.26,0-2.28-.35-3.08-1.04s-1.25-1.66-1.36-2.89h1.71c.11.81.4,1.43.87,1.84s1.09.62,1.86.62c.84,0,1.5-.29,1.98-.86s.72-1.36.72-2.37c0-.95-.26-1.71-.78-2.29s-1.21-.86-2.07-.86c-.79,0-1.41.17-1.86.52l-.48.39-1.45-.37Z"/>
    </g>
    <g>
      <rect class="cls-2" x="598.43" y="237.53" width="32.78" height="28.57"/>
      <path d="m618.01,252.89h1.97v1.47h-1.97v3.3h-1.82v-3.3h-6.47v-1.06l6.37-9.85h1.92v9.44Zm-6.24,0h4.42v-6.97l-.21.39-4.21,6.58Z"/>
    </g>
    <g>
      <rect class="cls-2" x="203.27" y="237.53" width="32.78" height="28.57"/>
      <path d="m222.31,244.44v1.53h-.33c-1.41.03-2.53.44-3.36,1.25s-1.32,1.94-1.45,3.41c.75-.86,1.77-1.29,3.07-1.29s2.22.44,2.96,1.31,1.11,2,1.11,3.38c0,1.46-.4,2.64-1.2,3.52s-1.87,1.32-3.21,1.32-2.46-.52-3.31-1.57-1.27-2.39-1.27-4.04v-.69c0-2.62.56-4.62,1.67-6s2.78-2.09,4.99-2.12h.32Zm-2.37,6.41c-.62,0-1.19.19-1.71.56s-.88.84-1.08,1.4v.66c0,1.17.26,2.12.79,2.83s1.18,1.07,1.97,1.07,1.45-.3,1.92-.9.7-1.38.7-2.35-.24-1.77-.71-2.37-1.1-.9-1.88-.9Z"/>
    </g>
    <g>
      <rect class="cls-2" x="259.72" y="237.53" width="32.78" height="28.57"/>
      <path d="m274.3,250.68h1.36c.85-.01,1.52-.24,2.01-.67s.73-1.03.73-1.77c0-1.67-.83-2.5-2.49-2.5-.78,0-1.4.22-1.87.67s-.7,1.04-.7,1.77h-1.81c0-1.13.41-2.06,1.24-2.81s1.87-1.12,3.14-1.12c1.34,0,2.39.35,3.15,1.06s1.14,1.7,1.14,2.96c0,.62-.2,1.22-.6,1.8s-.95,1.01-1.64,1.3c.78.25,1.38.66,1.81,1.23s.64,1.27.64,2.1c0,1.28-.42,2.29-1.25,3.04s-1.92,1.12-3.25,1.12-2.42-.36-3.26-1.08-1.25-1.68-1.25-2.86h1.82c0,.75.24,1.35.73,1.8s1.14.67,1.96.67c.87,0,1.54-.23,2-.68s.69-1.11.69-1.96-.25-1.46-.76-1.9-1.24-.67-2.2-.68h-1.36v-1.47Z"/>
    </g>
    <g>
      <rect class="cls-2" x="316.17" y="237.53" width="32.78" height="28.57"/>
      <path d="m335.07,258.67h-1.82v-12.04l-3.64,1.34v-1.64l5.18-1.94h.28v14.29Z"/>
    </g>
    <g>
      <rect class="cls-2" x="372.62" y="237.53" width="32.78" height="28.57"/>
      <path d="m393.2,248.16c0,.71-.19,1.34-.56,1.89s-.88.99-1.52,1.3c.74.32,1.33.78,1.76,1.4s.65,1.31.65,2.08c0,1.23-.42,2.21-1.25,2.94s-1.92,1.09-3.28,1.09-2.46-.37-3.29-1.1-1.24-1.71-1.24-2.93c0-.77.21-1.46.63-2.08s1-1.09,1.74-1.41c-.63-.31-1.13-.75-1.49-1.3s-.55-1.18-.55-1.88c0-1.2.38-2.15,1.15-2.85s1.78-1.05,3.04-1.05,2.26.35,3.03,1.05,1.16,1.65,1.16,2.85Zm-1.47,6.63c0-.79-.25-1.44-.76-1.94s-1.16-.75-1.98-.75-1.47.25-1.96.74-.74,1.15-.74,1.95.24,1.44.72,1.9,1.14.69,2,.69,1.51-.23,1.99-.7.72-1.1.72-1.9Zm-2.71-9.05c-.71,0-1.28.22-1.72.66s-.66,1.04-.66,1.79.22,1.31.65,1.75,1.01.67,1.73.67,1.3-.22,1.73-.67.65-1.03.65-1.75-.22-1.31-.67-1.77-1.02-.68-1.71-.68Z"/>
    </g>
  </g>
  <g>
    <g>
      <rect class="cls-2" x="474.63" y="313.83" width="32.78" height="28.57"/>
      <path d="m495.77,321.76l-5.89,13.2h-1.89l5.87-12.73h-7.7v-1.48h9.61v1.02Z"/>
      <rect class="cls-2" x="441.85" y="313.83" width="32.78" height="28.57"/>
      <path d="m463.13,334.96h-9.32v-1.3l4.92-5.47c.73-.83,1.23-1.5,1.51-2.02s.42-1.05.42-1.61c0-.74-.22-1.35-.67-1.83s-1.05-.71-1.8-.71c-.9,0-1.6.26-2.09.77s-.75,1.22-.75,2.13h-1.81c0-1.31.42-2.37,1.26-3.17s1.97-1.21,3.38-1.21c1.32,0,2.37.35,3.13,1.04s1.15,1.62,1.15,2.77c0,1.4-.89,3.07-2.68,5l-3.81,4.13h7.14v1.47Z"/>
    </g>
    <g>
      <rect class="cls-2" x="586.53" y="313.83" width="32.78" height="28.57"/>
      <path d="m599.32,327.84l.72-7.09h7.29v1.67h-5.75l-.43,3.88c.7-.41,1.49-.62,2.37-.62,1.3,0,2.32.43,3.09,1.28s1.14,2.01,1.14,3.47-.4,2.62-1.19,3.46-1.9,1.26-3.32,1.26c-1.26,0-2.28-.35-3.08-1.04s-1.25-1.66-1.36-2.89h1.71c.11.81.4,1.43.87,1.84s1.09.62,1.86.62c.84,0,1.5-.29,1.98-.86s.72-1.36.72-2.37c0-.95-.26-1.71-.78-2.29s-1.21-.86-2.07-.86c-.79,0-1.41.17-1.86.52l-.48.39-1.45-.37Z"/>
      <rect class="cls-2" x="553.74" y="313.83" width="32.78" height="28.57"/>
      <path d="m573.33,330.19h1.97v1.47h-1.97v3.3h-1.82v-3.3h-6.47v-1.06l6.37-9.85h1.92v9.44Zm-6.24,0h4.42v-6.97l-.21.39-4.21,6.58Z"/>
    </g>
    <g>
      <rect class="cls-2" x="248.44" y="313.83" width="32.78" height="28.57"/>
      <path d="m267.49,320.74v1.53h-.33c-1.41.03-2.53.44-3.36,1.25s-1.32,1.94-1.45,3.41c.75-.86,1.77-1.29,3.07-1.29s2.22.44,2.96,1.31,1.11,2,1.11,3.38c0,1.46-.4,2.64-1.2,3.52s-1.87,1.32-3.21,1.32-2.46-.52-3.31-1.57-1.27-2.39-1.27-4.04v-.69c0-2.62.56-4.62,1.67-6s2.78-2.09,4.99-2.12h.32Zm-2.37,6.41c-.62,0-1.19.19-1.71.56s-.88.84-1.08,1.4v.66c0,1.17.26,2.12.79,2.83s1.18,1.07,1.97,1.07,1.45-.3,1.92-.9.7-1.38.7-2.35-.24-1.77-.71-2.37-1.1-.9-1.88-.9Z"/>
      <rect class="cls-2" x="215.66" y="313.83" width="32.78" height="28.57"/>
      <path d="m230.25,326.98h1.36c.85-.01,1.52-.24,2.01-.67s.73-1.03.73-1.77c0-1.67-.83-2.5-2.49-2.5-.78,0-1.4.22-1.87.67s-.7,1.04-.7,1.77h-1.81c0-1.13.41-2.06,1.24-2.81s1.87-1.12,3.14-1.12c1.34,0,2.39.35,3.15,1.06s1.14,1.7,1.14,2.96c0,.62-.2,1.22-.6,1.8s-.95,1.01-1.64,1.3c.78.25,1.38.66,1.81,1.23s.64,1.27.64,2.1c0,1.28-.42,2.29-1.25,3.04s-1.92,1.12-3.25,1.12-2.42-.36-3.26-1.08-1.25-1.68-1.25-2.86h1.82c0,.75.24,1.35.73,1.8s1.14.67,1.96.67c.87,0,1.54-.23,2-.68s.69-1.11.69-1.96-.25-1.46-.76-1.9-1.24-.67-2.2-.68h-1.36v-1.47Z"/>
    </g>
    <g>
      <rect class="cls-2" x="328.25" y="313.83" width="32.78" height="28.57"/>
      <path d="m347.14,334.96h-1.82v-12.04l-3.64,1.34v-1.64l5.18-1.94h.28v14.29Z"/>
      <rect class="cls-2" x="361.03" y="313.83" width="32.78" height="28.57"/>
      <path d="m381.61,324.46c0,.71-.19,1.34-.56,1.89s-.88.99-1.52,1.3c.74.32,1.33.78,1.76,1.4s.65,1.31.65,2.08c0,1.23-.42,2.21-1.25,2.94s-1.92,1.09-3.28,1.09-2.46-.37-3.29-1.1-1.24-1.71-1.24-2.93c0-.77.21-1.46.63-2.08s1-1.09,1.74-1.41c-.63-.31-1.13-.75-1.49-1.3s-.55-1.18-.55-1.88c0-1.2.38-2.15,1.15-2.85s1.78-1.05,3.04-1.05,2.26.35,3.03,1.05,1.16,1.65,1.16,2.85Zm-1.47,6.63c0-.79-.25-1.44-.76-1.94s-1.16-.75-1.98-.75-1.47.25-1.96.74-.74,1.15-.74,1.95.24,1.44.72,1.9,1.14.69,2,.69,1.51-.23,1.99-.7.72-1.1.72-1.9Zm-2.71-9.05c-.71,0-1.28.22-1.72.66s-.66,1.04-.66,1.79.22,1.31.65,1.75,1.01.67,1.73.67,1.3-.22,1.73-.67.65-1.03.65-1.75-.22-1.31-.67-1.77-1.02-.68-1.71-.68Z"/>
    </g>
  </g>
  <g>
    <g>
      <rect class="cls-2" x="566.3" y="389.55" width="32.78" height="28.57"/>
      <path d="m587.44,397.48l-5.89,13.2h-1.89l5.87-12.73h-7.7v-1.48h9.61v1.02Z"/>
      <rect class="cls-2" x="467.95" y="389.55" width="32.78" height="28.57"/>
      <path d="m489.22,410.68h-9.32v-1.3l4.92-5.47c.73-.83,1.23-1.5,1.51-2.02s.42-1.05.42-1.61c0-.74-.22-1.35-.67-1.83s-1.05-.71-1.8-.71c-.9,0-1.6.26-2.09.77s-.75,1.22-.75,2.13h-1.81c0-1.31.42-2.37,1.26-3.17s1.97-1.21,3.38-1.21c1.32,0,2.37.35,3.13,1.04s1.15,1.62,1.15,2.77c0,1.4-.89,3.07-2.68,5l-3.81,4.13h7.14v1.47Z"/>
      <rect class="cls-2" x="533.52" y="389.55" width="32.78" height="28.57"/>
      <path d="m546.31,403.55l.72-7.09h7.29v1.67h-5.75l-.43,3.88c.7-.41,1.49-.62,2.37-.62,1.3,0,2.32.43,3.09,1.28s1.14,2.01,1.14,3.47-.4,2.62-1.19,3.46-1.9,1.26-3.32,1.26c-1.26,0-2.28-.35-3.08-1.04s-1.25-1.66-1.36-2.89h1.71c.11.81.4,1.43.87,1.84s1.09.62,1.86.62c.84,0,1.5-.29,1.98-.86s.72-1.36.72-2.37c0-.95-.26-1.71-.78-2.29s-1.21-.86-2.07-.86c-.79,0-1.41.17-1.86.52l-.48.39-1.45-.37Z"/>
      <rect class="cls-2" x="500.73" y="389.55" width="32.78" height="28.57"/>
      <path d="m520.32,405.9h1.97v1.47h-1.97v3.3h-1.82v-3.3h-6.47v-1.06l6.37-9.85h1.92v9.44Zm-6.24,0h4.42v-6.97l-.21.39-4.21,6.58Z"/>
    </g>
    <g>
      <rect class="cls-2" x="303.73" y="389.55" width="32.78" height="28.57"/>
      <path d="m322.77,396.45v1.53h-.33c-1.41.03-2.53.44-3.36,1.25s-1.32,1.94-1.45,3.41c.75-.86,1.77-1.29,3.07-1.29s2.22.44,2.96,1.31,1.11,2,1.11,3.38c0,1.46-.4,2.64-1.2,3.52s-1.87,1.32-3.21,1.32-2.46-.52-3.31-1.57-1.27-2.39-1.27-4.04v-.69c0-2.62.56-4.62,1.67-6s2.78-2.09,4.99-2.12h.32Zm-2.37,6.41c-.62,0-1.19.19-1.71.56s-.88.84-1.08,1.4v.66c0,1.17.26,2.12.79,2.83s1.18,1.07,1.97,1.07,1.45-.3,1.92-.9.7-1.38.7-2.35-.24-1.77-.71-2.37-1.1-.9-1.88-.9Z"/>
      <rect class="cls-2" x="270.94" y="389.55" width="32.78" height="28.57"/>
      <path d="m285.53,402.69h1.36c.85-.01,1.52-.24,2.01-.67s.73-1.03.73-1.77c0-1.67-.83-2.5-2.49-2.5-.78,0-1.4.22-1.87.67s-.7,1.04-.7,1.77h-1.81c0-1.13.41-2.06,1.24-2.81s1.87-1.12,3.14-1.12c1.34,0,2.39.35,3.15,1.06s1.14,1.7,1.14,2.96c0,.62-.2,1.22-.6,1.8s-.95,1.01-1.64,1.3c.78.25,1.38.66,1.81,1.23s.64,1.27.64,2.1c0,1.28-.42,2.29-1.25,3.04s-1.92,1.12-3.25,1.12-2.42-.36-3.26-1.08-1.25-1.68-1.25-2.86h1.82c0,.75.24,1.35.73,1.8s1.14.67,1.96.67c.87,0,1.54-.23,2-.68s.69-1.11.69-1.96-.25-1.46-.76-1.9-1.24-.67-2.2-.68h-1.36v-1.47Z"/>
      <rect class="cls-2" x="238.35" y="389.55" width="32.78" height="28.57"/>
      <path d="m257.25,410.68h-1.82v-12.04l-3.64,1.34v-1.64l5.18-1.94h.28v14.29Z"/>
      <rect class="cls-2" x="336.85" y="389.55" width="32.78" height="28.57"/>
      <path d="m357.43,400.17c0,.71-.19,1.34-.56,1.89s-.88.99-1.52,1.3c.74.32,1.33.78,1.76,1.4s.65,1.31.65,2.08c0,1.23-.42,2.21-1.25,2.94s-1.92,1.09-3.28,1.09-2.46-.37-3.29-1.1-1.24-1.71-1.24-2.93c0-.77.21-1.46.63-2.08s1-1.09,1.74-1.41c-.63-.31-1.13-.75-1.49-1.3s-.55-1.18-.55-1.88c0-1.2.38-2.15,1.15-2.85s1.78-1.05,3.04-1.05,2.26.35,3.03,1.05,1.16,1.65,1.16,2.85Zm-1.47,6.63c0-.79-.25-1.44-.76-1.94s-1.16-.75-1.98-.75-1.47.25-1.96.74-.74,1.15-.74,1.95.24,1.44.72,1.9,1.14.69,2,.69,1.51-.23,1.99-.7.72-1.1.72-1.9Zm-2.71-9.05c-.71,0-1.28.22-1.72.66s-.66,1.04-.66,1.79.22,1.31.65,1.75,1.01.67,1.73.67,1.3-.22,1.73-.67.65-1.03.65-1.75-.22-1.31-.67-1.77-1.02-.68-1.71-.68Z"/>
    </g>
  </g>
  <g>
    <path d="m12.77,14.4l4.65,11.6,4.65-11.6h2.43v14.22h-1.88v-5.54l.18-5.98-4.67,11.51h-1.44l-4.66-11.48.19,5.95v5.54h-1.88v-14.22h2.42Z"/>
    <path d="m31.91,28.82c-1.43,0-2.6-.47-3.5-1.41s-1.35-2.2-1.35-3.77v-.33c0-1.05.2-1.98.6-2.81s.96-1.47,1.68-1.93,1.5-.7,2.34-.7c1.37,0,2.44.45,3.2,1.36s1.14,2.2,1.14,3.89v.75h-7.16c.03,1.04.33,1.88.91,2.52s1.32.96,2.22.96c.64,0,1.18-.13,1.62-.39s.83-.61,1.16-1.04l1.1.86c-.89,1.36-2.21,2.04-3.98,2.04Zm-.22-9.47c-.73,0-1.34.27-1.84.8s-.8,1.27-.92,2.23h5.29v-.14c-.05-.92-.3-1.63-.74-2.13s-1.04-.76-1.8-.76Z"/>
    <path d="m43.23,19.68c-.27-.05-.57-.07-.89-.07-1.18,0-1.99.5-2.41,1.51v7.5h-1.81v-10.57h1.76l.03,1.22c.59-.94,1.43-1.42,2.52-1.42.35,0,.62.05.8.14v1.68Z"/>
    <path d="m44.46,23.25c0-1.65.38-2.96,1.14-3.93s1.77-1.46,3.03-1.46,2.29.46,3.02,1.37l.09-1.17h1.65v10.31c0,1.37-.41,2.44-1.22,3.23s-1.9,1.18-3.27,1.18c-.76,0-1.51-.16-2.24-.49s-1.29-.77-1.67-1.34l.94-1.08c.77.96,1.72,1.44,2.84,1.44.88,0,1.56-.25,2.06-.74s.74-1.19.74-2.09v-.91c-.72.83-1.71,1.25-2.96,1.25s-2.24-.5-3-1.49-1.15-2.35-1.15-4.07Zm1.82.21c0,1.19.24,2.13.73,2.81s1.17,1.02,2.05,1.02c1.14,0,1.98-.52,2.51-1.55v-4.82c-.55-1.01-1.38-1.51-2.49-1.51-.88,0-1.57.34-2.06,1.03s-.74,1.7-.74,3.04Z"/>
    <path d="m60.49,28.82c-1.43,0-2.6-.47-3.5-1.41s-1.35-2.2-1.35-3.77v-.33c0-1.05.2-1.98.6-2.81s.96-1.47,1.68-1.93,1.5-.7,2.34-.7c1.37,0,2.44.45,3.2,1.36s1.14,2.2,1.14,3.89v.75h-7.16c.03,1.04.33,1.88.91,2.52s1.32.96,2.22.96c.64,0,1.18-.13,1.62-.39s.83-.61,1.16-1.04l1.1.86c-.89,1.36-2.21,2.04-3.98,2.04Zm-.22-9.47c-.73,0-1.34.27-1.84.8s-.8,1.27-.92,2.23h5.29v-.14c-.05-.92-.3-1.63-.74-2.13s-1.04-.76-1.8-.76Z"/>
    <path d="m72.85,25.82c0-.49-.18-.87-.55-1.14s-1.01-.5-1.92-.7-1.64-.43-2.18-.7-.93-.6-1.19-.98-.39-.83-.39-1.35c0-.87.37-1.6,1.1-2.2s1.67-.9,2.81-.9c1.2,0,2.17.31,2.92.93s1.12,1.41,1.12,2.37h-1.82c0-.5-.21-.92-.63-1.28s-.95-.54-1.59-.54-1.17.14-1.54.43-.56.66-.56,1.12c0,.44.17.76.52.99s.97.43,1.87.63,1.63.44,2.19.72.97.62,1.25,1.01.41.87.41,1.44c0,.94-.38,1.7-1.13,2.27s-1.74.85-2.94.85c-.85,0-1.59-.15-2.25-.45s-1.16-.72-1.53-1.25-.55-1.12-.55-1.74h1.81c.03.61.28,1.09.73,1.44s1.05.53,1.79.53c.68,0,1.23-.14,1.65-.42s.62-.65.62-1.11Z"/>
    <path d="m76.54,23.24c0-1.04.2-1.97.61-2.79s.97-1.46,1.7-1.91,1.55-.67,2.49-.67c1.44,0,2.6.5,3.49,1.49s1.33,2.32,1.33,3.97v.13c0,1.03-.2,1.95-.59,2.77s-.96,1.45-1.69,1.91-1.57.68-2.52.68c-1.43,0-2.59-.5-3.48-1.49s-1.33-2.31-1.33-3.96v-.13Zm1.82.21c0,1.17.27,2.11.82,2.82s1.27,1.06,2.18,1.06,1.65-.36,2.19-1.08.81-1.73.81-3.02c0-1.16-.28-2.1-.83-2.82s-1.28-1.08-2.19-1.08-1.61.35-2.16,1.06-.82,1.73-.82,3.05Z"/>
    <path d="m93.53,19.68c-.27-.05-.57-.07-.89-.07-1.18,0-1.99.5-2.41,1.51v7.5h-1.81v-10.57h1.76l.03,1.22c.59-.94,1.43-1.42,2.52-1.42.35,0,.62.05.8.14v1.68Z"/>
    <path d="m98.13,15.5v2.56h1.97v1.4h-1.97v6.56c0,.42.09.74.26.95s.48.32.9.32c.21,0,.5-.04.86-.12v1.46c-.48.13-.94.19-1.39.19-.81,0-1.42-.24-1.83-.73s-.62-1.18-.62-2.08v-6.55h-1.92v-1.4h1.92v-2.56h1.81Z"/>
    <path d="m102.14,22.85c0-1.47.2-2.88.59-4.24s.98-2.58,1.76-3.69,1.59-1.89,2.43-2.34l.37,1.19c-.95.73-1.73,1.84-2.34,3.34s-.94,3.17-1,5.03v.83c0,2.51.45,4.69,1.37,6.54.55,1.11,1.21,1.97,1.97,2.6l-.37,1.1c-.87-.48-1.69-1.29-2.48-2.42-1.54-2.21-2.3-4.86-2.3-7.94Z"/>
    <path d="m117.18,24.9h-5.96l-1.34,3.72h-1.93l5.43-14.22h1.64l5.44,14.22h-1.92l-1.36-3.72Zm-5.39-1.53h4.83l-2.42-6.65-2.41,6.65Z"/>
    <path d="m125.83,13.86h-1.87v16.33h1.87v1.48h-3.68V12.37h3.68v1.48Z"/>
    <path d="m130.64,28.82c-1.2-.03-2.1-.45-2.7-1.27s-.87-2.01-.82-3.56c.01-.48.05-.96.11-1.43l.35-2.37c.31-2.02.91-3.54,1.79-4.53s2.04-1.48,3.48-1.45c1.21.03,2.11.44,2.71,1.25s.87,1.97.83,3.5c-.02.49-.06.97-.12,1.44l-.34,2.29c-.34,2.14-.95,3.71-1.83,4.7s-2.02,1.47-3.46,1.44Zm3.92-8.75c.09-.79.13-1.4.13-1.84-.03-1.65-.67-2.5-1.92-2.55-.91-.03-1.65.3-2.21,1.01s-.96,1.81-1.18,3.33l-.42,2.83c-.09.75-.13,1.37-.13,1.85.03,1.73.67,2.61,1.91,2.66.87.04,1.58-.28,2.14-.96s.96-1.75,1.21-3.22l.47-3.11Z"/>
    <path d="m138.63,26.57c.32,0,.58.09.79.29s.31.46.3.78-.11.58-.32.78-.47.3-.78.32-.57-.08-.77-.27-.3-.45-.3-.77.1-.58.3-.8.46-.32.78-.34Z"/>
    <path d="m143.83,26.57c.32,0,.58.09.79.29s.31.46.3.78-.11.58-.32.78-.47.3-.78.32-.57-.08-.77-.27-.3-.45-.3-.77.1-.58.3-.8.46-.32.78-.34Z"/>
    <path d="m149.04,26.57c.32,0,.58.09.79.29s.31.46.3.78-.11.58-.32.78-.47.3-.78.32-.57-.08-.77-.27-.3-.45-.3-.77.1-.58.3-.8.46-.32.78-.34Z"/>
    <path d="m163.83,15.52l-7.72,13.11h-1.93l7.69-12.73h-7.42l.23-1.48h9.34l-.18,1.11Z"/>
    <path d="m163.72,12.37h3.69v19.3h-3.69v-1.48h1.88V13.86h-1.88v-1.48Z"/>
    <path d="m174.48,22.95c0,1.45-.19,2.84-.57,4.17s-.96,2.56-1.75,3.69-1.61,1.93-2.47,2.4l-.38-1.1c1-.77,1.81-1.96,2.42-3.58s.92-3.41.93-5.39v-.31c0-1.37-.14-2.64-.43-3.81s-.69-2.23-1.2-3.16-1.09-1.66-1.72-2.18l.38-1.1c.86.48,1.68,1.27,2.46,2.38s1.36,2.34,1.75,3.68.58,2.78.58,4.31Z"/>
  </g>
  <g>
    <polyline class="cls-4" points="417.24 37.06 417.24 46.2 304 46.2 304 76.17"/>
    <polygon class="cls-1" points="301.09 74.19 304 85.03 306.9 74.19 301.09 74.19"/>
  </g>
  <g>
    <polyline class="cls-4" points="530.48 418.12 530.48 427.3 417.24 427.3 417.24 456.4"/>
    <polygon class="cls-1" points="414.33 454.42 417.24 465.26 420.15 454.42 414.33 454.42"/>
  </g>
  <g>
    <path d="m12.77,124.21l4.65,11.6,4.65-11.6h2.43v14.22h-1.88v-5.54l.18-5.98-4.67,11.51h-1.44l-4.66-11.48.19,5.95v5.54h-1.88v-14.22h2.42Z"/>
    <path d="m31.91,138.63c-1.43,0-2.6-.47-3.5-1.41s-1.35-2.2-1.35-3.77v-.33c0-1.05.2-1.98.6-2.81s.96-1.47,1.68-1.93,1.5-.7,2.34-.7c1.37,0,2.44.45,3.2,1.36s1.14,2.2,1.14,3.89v.75h-7.16c.03,1.04.33,1.88.91,2.52s1.32.96,2.22.96c.64,0,1.18-.13,1.62-.39s.83-.61,1.16-1.04l1.1.86c-.89,1.36-2.21,2.04-3.98,2.04Zm-.22-9.47c-.73,0-1.34.27-1.84.8s-.8,1.27-.92,2.23h5.29v-.14c-.05-.92-.3-1.63-.74-2.13s-1.04-.76-1.8-.76Z"/>
    <path d="m43.23,129.49c-.27-.05-.57-.07-.89-.07-1.18,0-1.99.5-2.41,1.51v7.5h-1.81v-10.57h1.76l.03,1.22c.59-.94,1.43-1.42,2.52-1.42.35,0,.62.05.8.14v1.68Z"/>
    <path d="m44.46,133.06c0-1.65.38-2.96,1.14-3.93s1.77-1.46,3.03-1.46,2.29.46,3.02,1.37l.09-1.17h1.65v10.31c0,1.37-.41,2.44-1.22,3.23s-1.9,1.18-3.27,1.18c-.76,0-1.51-.16-2.24-.49s-1.29-.77-1.67-1.34l.94-1.08c.77.96,1.72,1.44,2.84,1.44.88,0,1.56-.25,2.06-.74s.74-1.19.74-2.09v-.91c-.72.83-1.71,1.25-2.96,1.25s-2.24-.5-3-1.49-1.15-2.35-1.15-4.07Zm1.82.21c0,1.19.24,2.13.73,2.81s1.17,1.02,2.05,1.02c1.14,0,1.98-.52,2.51-1.55v-4.82c-.55-1.01-1.38-1.51-2.49-1.51-.88,0-1.57.34-2.06,1.03s-.74,1.7-.74,3.04Z"/>
    <path d="m60.49,138.63c-1.43,0-2.6-.47-3.5-1.41s-1.35-2.2-1.35-3.77v-.33c0-1.05.2-1.98.6-2.81s.96-1.47,1.68-1.93,1.5-.7,2.34-.7c1.37,0,2.44.45,3.2,1.36s1.14,2.2,1.14,3.89v.75h-7.16c.03,1.04.33,1.88.91,2.52s1.32.96,2.22.96c.64,0,1.18-.13,1.62-.39s.83-.61,1.16-1.04l1.1.86c-.89,1.36-2.21,2.04-3.98,2.04Zm-.22-9.47c-.73,0-1.34.27-1.84.8s-.8,1.27-.92,2.23h5.29v-.14c-.05-.92-.3-1.63-.74-2.13s-1.04-.76-1.8-.76Z"/>
    <path d="m72.85,135.63c0-.49-.18-.87-.55-1.14s-1.01-.5-1.92-.7-1.64-.43-2.18-.7-.93-.6-1.19-.98-.39-.83-.39-1.35c0-.87.37-1.6,1.1-2.2s1.67-.9,2.81-.9c1.2,0,2.17.31,2.92.93s1.12,1.41,1.12,2.37h-1.82c0-.5-.21-.92-.63-1.28s-.95-.54-1.59-.54-1.17.14-1.54.43-.56.66-.56,1.12c0,.44.17.76.52.99s.97.43,1.87.63,1.63.44,2.19.72.97.62,1.25,1.01.41.87.41,1.44c0,.94-.38,1.7-1.13,2.27s-1.74.85-2.94.85c-.85,0-1.59-.15-2.25-.45s-1.16-.72-1.53-1.25-.55-1.12-.55-1.74h1.81c.03.61.28,1.09.73,1.44s1.05.53,1.79.53c.68,0,1.23-.14,1.65-.42s.62-.65.62-1.11Z"/>
    <path d="m76.54,133.05c0-1.04.2-1.97.61-2.79s.97-1.46,1.7-1.91,1.55-.67,2.49-.67c1.44,0,2.6.5,3.49,1.49s1.33,2.32,1.33,3.97v.13c0,1.03-.2,1.95-.59,2.77s-.96,1.45-1.69,1.91-1.57.68-2.52.68c-1.43,0-2.59-.5-3.48-1.49s-1.33-2.31-1.33-3.96v-.13Zm1.82.21c0,1.17.27,2.11.82,2.82s1.27,1.06,2.18,1.06,1.65-.36,2.19-1.08.81-1.73.81-3.02c0-1.16-.28-2.1-.83-2.82s-1.28-1.08-2.19-1.08-1.61.35-2.16,1.06-.82,1.73-.82,3.05Z"/>
    <path d="m93.53,129.49c-.27-.05-.57-.07-.89-.07-1.18,0-1.99.5-2.41,1.51v7.5h-1.81v-10.57h1.76l.03,1.22c.59-.94,1.43-1.42,2.52-1.42.35,0,.62.05.8.14v1.68Z"/>
    <path d="m98.13,125.31v2.56h1.97v1.4h-1.97v6.56c0,.42.09.74.26.95s.48.32.9.32c.21,0,.5-.04.86-.12v1.46c-.48.13-.94.19-1.39.19-.81,0-1.42-.24-1.83-.73s-.62-1.18-.62-2.08v-6.55h-1.92v-1.4h1.92v-2.56h1.81Z"/>
    <path d="m102.14,132.66c0-1.47.2-2.88.59-4.24s.98-2.58,1.76-3.69,1.59-1.89,2.43-2.34l.37,1.19c-.95.73-1.73,1.84-2.34,3.34s-.94,3.17-1,5.03v.83c0,2.51.45,4.69,1.37,6.54.55,1.11,1.21,1.97,1.97,2.6l-.37,1.1c-.87-.48-1.69-1.29-2.48-2.42-1.54-2.21-2.3-4.86-2.3-7.94Z"/>
    <path d="m117.18,134.71h-5.96l-1.34,3.72h-1.93l5.43-14.22h1.64l5.44,14.22h-1.92l-1.36-3.72Zm-5.39-1.53h4.83l-2.42-6.65-2.41,6.65Z"/>
    <path d="m125.83,123.66h-1.87v16.33h1.87v1.48h-3.68v-19.3h3.68v1.48Z"/>
    <path d="m134.4,133.66h1.91l-.26,1.47h-1.9l-.58,3.3h-1.78l.58-3.3h-6.29l.21-1.16,7.81-9.76h1.93l-1.63,9.44Zm-6,0h4.22l1.27-6.99-.28.41-5.21,6.58Z"/>
    <path d="m138.63,136.38c.32,0,.58.09.79.29s.31.46.3.78-.11.58-.32.78-.47.3-.78.32-.57-.08-.77-.27-.3-.45-.3-.77.1-.58.3-.8.46-.32.78-.34Z"/>
    <path d="m143.83,136.38c.32,0,.58.09.79.29s.31.46.3.78-.11.58-.32.78-.47.3-.78.32-.57-.08-.77-.27-.3-.45-.3-.77.1-.58.3-.8.46-.32.78-.34Z"/>
    <path d="m149.04,136.38c.32,0,.58.09.79.29s.31.46.3.78-.11.58-.32.78-.47.3-.78.32-.57-.08-.77-.27-.3-.45-.3-.77.1-.58.3-.8.46-.32.78-.34Z"/>
    <path d="m163.83,125.33l-7.72,13.11h-1.93l7.69-12.73h-7.42l.23-1.48h9.34l-.18,1.11Z"/>
    <path d="m163.72,122.18h3.69v19.3h-3.69v-1.48h1.88v-16.33h-1.88v-1.48Z"/>
    <path d="m174.48,132.76c0,1.45-.19,2.84-.57,4.17s-.96,2.56-1.75,3.69-1.61,1.93-2.47,2.4l-.38-1.1c1-.77,1.81-1.96,2.42-3.58s.92-3.41.93-5.39v-.31c0-1.37-.14-2.64-.43-3.81s-.69-2.23-1.2-3.16-1.09-1.66-1.72-2.18l.38-1.1c.86.48,1.68,1.27,2.46,2.38s1.36,2.34,1.75,3.68.58,2.78.58,4.31Z"/>
  </g>
  <g>
    <path d="m12.77,90.9l4.65,11.6,4.65-11.6h2.43v14.22h-1.88v-5.54l.18-5.98-4.67,11.51h-1.44l-4.66-11.48.19,5.95v5.54h-1.88v-14.22h2.42Z"/>
    <path d="m31.91,105.32c-1.43,0-2.6-.47-3.5-1.41s-1.35-2.2-1.35-3.77v-.33c0-1.05.2-1.98.6-2.81s.96-1.47,1.68-1.93,1.5-.7,2.34-.7c1.37,0,2.44.45,3.2,1.36s1.14,2.2,1.14,3.89v.75h-7.16c.03,1.04.33,1.88.91,2.52s1.32.96,2.22.96c.64,0,1.18-.13,1.62-.39s.83-.61,1.16-1.04l1.1.86c-.89,1.36-2.21,2.04-3.98,2.04Zm-.22-9.47c-.73,0-1.34.27-1.84.8s-.8,1.27-.92,2.23h5.29v-.14c-.05-.92-.3-1.63-.74-2.13s-1.04-.76-1.8-.76Z"/>
    <path d="m43.23,96.18c-.27-.05-.57-.07-.89-.07-1.18,0-1.99.5-2.41,1.51v7.5h-1.81v-10.57h1.76l.03,1.22c.59-.94,1.43-1.42,2.52-1.42.35,0,.62.05.8.14v1.68Z"/>
    <path d="m44.46,99.75c0-1.65.38-2.96,1.14-3.93s1.77-1.46,3.03-1.46,2.29.46,3.02,1.37l.09-1.17h1.65v10.31c0,1.37-.41,2.44-1.22,3.23s-1.9,1.18-3.27,1.18c-.76,0-1.51-.16-2.24-.49s-1.29-.77-1.67-1.34l.94-1.08c.77.96,1.72,1.44,2.84,1.44.88,0,1.56-.25,2.06-.74s.74-1.19.74-2.09v-.91c-.72.83-1.71,1.25-2.96,1.25s-2.24-.5-3-1.49-1.15-2.35-1.15-4.07Zm1.82.21c0,1.19.24,2.13.73,2.81s1.17,1.02,2.05,1.02c1.14,0,1.98-.52,2.51-1.55v-4.82c-.55-1.01-1.38-1.51-2.49-1.51-.88,0-1.57.34-2.06,1.03s-.74,1.7-.74,3.04Z"/>
    <path d="m60.49,105.32c-1.43,0-2.6-.47-3.5-1.41s-1.35-2.2-1.35-3.77v-.33c0-1.05.2-1.98.6-2.81s.96-1.47,1.68-1.93,1.5-.7,2.34-.7c1.37,0,2.44.45,3.2,1.36s1.14,2.2,1.14,3.89v.75h-7.16c.03,1.04.33,1.88.91,2.52s1.32.96,2.22.96c.64,0,1.18-.13,1.62-.39s.83-.61,1.16-1.04l1.1.86c-.89,1.36-2.21,2.04-3.98,2.04Zm-.22-9.47c-.73,0-1.34.27-1.84.8s-.8,1.27-.92,2.23h5.29v-.14c-.05-.92-.3-1.63-.74-2.13s-1.04-.76-1.8-.76Z"/>
    <path d="m72.85,102.32c0-.49-.18-.87-.55-1.14s-1.01-.5-1.92-.7-1.64-.43-2.18-.7-.93-.6-1.19-.98-.39-.83-.39-1.35c0-.87.37-1.6,1.1-2.2s1.67-.9,2.81-.9c1.2,0,2.17.31,2.92.93s1.12,1.41,1.12,2.37h-1.82c0-.5-.21-.92-.63-1.28s-.95-.54-1.59-.54-1.17.14-1.54.43-.56.66-.56,1.12c0,.44.17.76.52.99s.97.43,1.87.63,1.63.44,2.19.72.97.62,1.25,1.01.41.87.41,1.44c0,.94-.38,1.7-1.13,2.27s-1.74.85-2.94.85c-.85,0-1.59-.15-2.25-.45s-1.16-.72-1.53-1.25-.55-1.12-.55-1.74h1.81c.03.61.28,1.09.73,1.44s1.05.53,1.79.53c.68,0,1.23-.14,1.65-.42s.62-.65.62-1.11Z"/>
    <path d="m76.54,99.74c0-1.04.2-1.97.61-2.79s.97-1.46,1.7-1.91,1.55-.67,2.49-.67c1.44,0,2.6.5,3.49,1.49s1.33,2.32,1.33,3.97v.13c0,1.03-.2,1.95-.59,2.77s-.96,1.45-1.69,1.91-1.57.68-2.52.68c-1.43,0-2.59-.5-3.48-1.49s-1.33-2.31-1.33-3.96v-.13Zm1.82.21c0,1.17.27,2.11.82,2.82s1.27,1.06,2.18,1.06,1.65-.36,2.19-1.08.81-1.73.81-3.02c0-1.16-.28-2.1-.83-2.82s-1.28-1.08-2.19-1.08-1.61.35-2.16,1.06-.82,1.73-.82,3.05Z"/>
    <path d="m93.53,96.18c-.27-.05-.57-.07-.89-.07-1.18,0-1.99.5-2.41,1.51v7.5h-1.81v-10.57h1.76l.03,1.22c.59-.94,1.43-1.42,2.52-1.42.35,0,.62.05.8.14v1.68Z"/>
    <path d="m98.13,92v2.56h1.97v1.4h-1.97v6.56c0,.42.09.74.26.95s.48.32.9.32c.21,0,.5-.04.86-.12v1.46c-.48.13-.94.19-1.39.19-.81,0-1.42-.24-1.83-.73s-.62-1.18-.62-2.08v-6.55h-1.92v-1.4h1.92v-2.56h1.81Z"/>
    <path d="m102.14,99.35c0-1.47.2-2.88.59-4.24s.98-2.58,1.76-3.69,1.59-1.89,2.43-2.34l.37,1.19c-.95.73-1.73,1.84-2.34,3.34s-.94,3.17-1,5.03v.83c0,2.51.45,4.69,1.37,6.54.55,1.11,1.21,1.97,1.97,2.6l-.37,1.1c-.87-.48-1.69-1.29-2.48-2.42-1.54-2.21-2.3-4.86-2.3-7.94Z"/>
    <path d="m117.18,101.4h-5.96l-1.34,3.72h-1.93l5.43-14.22h1.64l5.44,14.22h-1.92l-1.36-3.72Zm-5.39-1.53h4.83l-2.42-6.65-2.41,6.65Z"/>
    <path d="m125.83,90.35h-1.87v16.33h1.87v1.48h-3.68v-19.3h3.68v1.48Z"/>
    <path d="m130.64,105.32c-1.2-.03-2.1-.45-2.7-1.27s-.87-2.01-.82-3.56c.01-.48.05-.96.11-1.43l.35-2.37c.31-2.02.91-3.54,1.79-4.53s2.04-1.48,3.48-1.45c1.21.03,2.11.44,2.71,1.25s.87,1.97.83,3.5c-.02.49-.06.97-.12,1.44l-.34,2.29c-.34,2.14-.95,3.71-1.83,4.7s-2.02,1.47-3.46,1.44Zm3.92-8.75c.09-.79.13-1.4.13-1.84-.03-1.65-.67-2.5-1.92-2.55-.91-.03-1.65.3-2.21,1.01s-.96,1.81-1.18,3.33l-.42,2.83c-.09.75-.13,1.37-.13,1.85.03,1.73.67,2.61,1.91,2.66.87.04,1.58-.28,2.14-.96s.96-1.75,1.21-3.22l.47-3.11Z"/>
    <path d="m138.63,103.07c.32,0,.58.09.79.29s.31.46.3.78-.11.58-.32.78-.47.3-.78.32-.57-.08-.77-.27-.3-.45-.3-.77.1-.58.3-.8.46-.32.78-.34Z"/>
    <path d="m143.83,103.07c.32,0,.58.09.79.29s.31.46.3.78-.11.58-.32.78-.47.3-.78.32-.57-.08-.77-.27-.3-.45-.3-.77.1-.58.3-.8.46-.32.78-.34Z"/>
    <path d="m149.04,103.07c.32,0,.58.09.79.29s.31.46.3.78-.11.58-.32.78-.47.3-.78.32-.57-.08-.77-.27-.3-.45-.3-.77.1-.58.3-.8.46-.32.78-.34Z"/>
    <path d="m156.7,97.13h1.17c.86,0,1.58-.22,2.17-.67s.93-1.07,1.01-1.84c.08-.75-.06-1.35-.42-1.78s-.9-.66-1.59-.67c-.74-.01-1.37.2-1.89.65s-.83,1.05-.95,1.8h-1.75c.11-1.16.61-2.11,1.5-2.85s1.95-1.09,3.18-1.08c1.19.03,2.13.4,2.81,1.12s.97,1.67.88,2.85c-.06.67-.32,1.28-.77,1.84s-1.09,1.01-1.89,1.38c.64.26,1.13.67,1.45,1.24s.45,1.22.4,1.98c-.1,1.28-.61,2.31-1.53,3.1s-2.03,1.16-3.33,1.13c-1.22-.03-2.19-.4-2.91-1.13s-1.06-1.67-1.01-2.82h1.77c-.04.74.14,1.33.53,1.77s.96.68,1.7.71c.83.03,1.53-.21,2.08-.71s.87-1.17.95-2.01c.07-.77-.1-1.38-.53-1.81s-1.05-.66-1.89-.69h-1.36s.23-1.48.23-1.48Z"/>
    <path d="m163.72,88.87h3.69v19.3h-3.69v-1.48h1.88v-16.33h-1.88v-1.48Z"/>
    <path d="m174.48,99.45c0,1.45-.19,2.84-.57,4.17s-.96,2.56-1.75,3.69-1.61,1.93-2.47,2.4l-.38-1.1c1-.77,1.81-1.96,2.42-3.58s.92-3.41.93-5.39v-.31c0-1.37-.14-2.64-.43-3.81s-.69-2.23-1.2-3.16-1.09-1.66-1.72-2.18l.38-1.1c.86.48,1.68,1.27,2.46,2.38s1.36,2.34,1.75,3.68.58,2.78.58,4.31Z"/>
  </g>
  <g>
    <path d="m28.45,471.17l4.65,11.6,4.65-11.6h2.43v14.22h-1.88v-5.54l.18-5.98-4.67,11.51h-1.44l-4.66-11.48.19,5.95v5.54h-1.88v-14.22h2.42Z"/>
    <path d="m47.59,485.59c-1.43,0-2.6-.47-3.5-1.41s-1.35-2.2-1.35-3.77v-.33c0-1.05.2-1.98.6-2.81s.96-1.47,1.68-1.93,1.5-.7,2.34-.7c1.37,0,2.44.45,3.2,1.36s1.14,2.2,1.14,3.89v.75h-7.16c.03,1.04.33,1.88.91,2.52s1.32.96,2.22.96c.64,0,1.18-.13,1.62-.39s.83-.61,1.16-1.04l1.1.86c-.89,1.36-2.21,2.04-3.98,2.04Zm-.22-9.47c-.73,0-1.34.27-1.84.8s-.8,1.27-.92,2.23h5.29v-.14c-.05-.92-.3-1.63-.74-2.13s-1.04-.76-1.8-.76Z"/>
    <path d="m58.91,476.44c-.27-.05-.57-.07-.89-.07-1.18,0-1.99.5-2.41,1.51v7.5h-1.81v-10.57h1.76l.03,1.22c.59-.94,1.43-1.42,2.52-1.42.35,0,.62.05.8.14v1.68Z"/>
    <path d="m60.14,480.02c0-1.65.38-2.96,1.14-3.93s1.77-1.46,3.03-1.46,2.29.46,3.02,1.37l.09-1.17h1.65v10.31c0,1.37-.41,2.44-1.22,3.23s-1.9,1.18-3.27,1.18c-.76,0-1.51-.16-2.24-.49s-1.29-.77-1.67-1.34l.94-1.08c.77.96,1.72,1.44,2.84,1.44.88,0,1.56-.25,2.06-.74s.74-1.19.74-2.09v-.91c-.72.83-1.71,1.25-2.96,1.25s-2.24-.5-3-1.49-1.15-2.35-1.15-4.07Zm1.82.21c0,1.19.24,2.13.73,2.81s1.17,1.02,2.05,1.02c1.14,0,1.98-.52,2.51-1.55v-4.82c-.55-1.01-1.38-1.51-2.49-1.51-.88,0-1.57.34-2.06,1.03s-.74,1.7-.74,3.04Z"/>
    <path d="m76.17,485.59c-1.43,0-2.6-.47-3.5-1.41s-1.35-2.2-1.35-3.77v-.33c0-1.05.2-1.98.6-2.81s.96-1.47,1.68-1.93,1.5-.7,2.34-.7c1.37,0,2.44.45,3.2,1.36s1.14,2.2,1.14,3.89v.75h-7.16c.03,1.04.33,1.88.91,2.52s1.32.96,2.22.96c.64,0,1.18-.13,1.62-.39s.83-.61,1.16-1.04l1.1.86c-.89,1.36-2.21,2.04-3.98,2.04Zm-.22-9.47c-.73,0-1.34.27-1.84.8s-.8,1.27-.92,2.23h5.29v-.14c-.05-.92-.3-1.63-.74-2.13s-1.04-.76-1.8-.76Z"/>
    <path d="m82.32,479.62c0-1.47.2-2.88.59-4.24s.98-2.58,1.76-3.69,1.59-1.89,2.43-2.34l.37,1.19c-.95.73-1.73,1.84-2.34,3.34s-.94,3.17-1,5.03v.83c0,2.51.45,4.69,1.37,6.54.55,1.11,1.21,1.97,1.97,2.6l-.37,1.1c-.87-.48-1.69-1.29-2.48-2.42-1.54-2.21-2.3-4.86-2.3-7.94Z"/>
    <path d="m97.36,481.67h-5.96l-1.34,3.72h-1.93l5.43-14.22h1.64l5.44,14.22h-1.92l-1.36-3.72Zm-5.39-1.53h4.83l-2.42-6.65-2.41,6.65Z"/>
    <path d="m106.01,470.62h-1.87v16.33h1.87v1.48h-3.68v-19.3h3.68v1.48Z"/>
    <path d="m110.81,485.59c-1.2-.03-2.1-.45-2.7-1.27s-.87-2.01-.82-3.56c.01-.48.05-.96.11-1.43l.35-2.37c.31-2.02.91-3.54,1.79-4.53s2.04-1.48,3.48-1.45c1.21.03,2.11.44,2.71,1.25s.87,1.97.83,3.5c-.02.49-.06.97-.12,1.44l-.34,2.29c-.34,2.14-.95,3.71-1.83,4.7s-2.02,1.47-3.46,1.44Zm3.92-8.75c.09-.79.13-1.4.13-1.84-.03-1.65-.67-2.5-1.92-2.55-.91-.03-1.65.3-2.21,1.01s-.96,1.81-1.18,3.33l-.42,2.83c-.09.75-.13,1.37-.13,1.85.03,1.73.67,2.61,1.91,2.66.87.04,1.58-.28,2.14-.96s.96-1.75,1.21-3.22l.47-3.11Z"/>
    <path d="m118.8,483.34c.32,0,.58.09.79.29s.31.46.3.78-.11.58-.32.78-.47.3-.78.32-.57-.08-.77-.27-.3-.45-.3-.77.1-.58.3-.8.46-.32.78-.34Z"/>
    <path d="m124.01,483.34c.32,0,.58.09.79.29s.31.46.3.78-.11.58-.32.78-.47.3-.78.32-.57-.08-.77-.27-.3-.45-.3-.77.1-.58.3-.8.46-.32.78-.34Z"/>
    <path d="m129.21,483.34c.32,0,.58.09.79.29s.31.46.3.78-.11.58-.32.78-.47.3-.78.32-.57-.08-.77-.27-.3-.45-.3-.77.1-.58.3-.8.46-.32.78-.34Z"/>
    <path d="m144.01,472.28l-7.72,13.11h-1.93l7.69-12.73h-7.42l.23-1.48h9.34l-.18,1.11Z"/>
    <path d="m143.9,469.14h3.69v19.3h-3.69v-1.48h1.88v-16.33h-1.88v-1.48Z"/>
    <path d="m150.42,488.22l-1.03-.7c.61-.85.93-1.73.96-2.64v-1.63h1.77v1.42c0,.66-.16,1.32-.48,1.97s-.73,1.18-1.22,1.58Z"/>
    <path d="m162,477.4h1.17c.86,0,1.58-.22,2.17-.67s.93-1.07,1.01-1.84c.08-.75-.06-1.35-.42-1.78s-.9-.66-1.59-.67c-.74-.01-1.37.2-1.89.65s-.83,1.05-.95,1.8h-1.75c.11-1.16.61-2.11,1.5-2.85s1.95-1.09,3.18-1.08c1.19.03,2.13.4,2.81,1.12s.97,1.67.88,2.85c-.06.67-.32,1.28-.77,1.84s-1.09,1.01-1.89,1.38c.64.26,1.13.67,1.45,1.24s.45,1.22.4,1.98c-.1,1.28-.61,2.31-1.53,3.1s-2.03,1.16-3.33,1.13c-1.22-.03-2.19-.4-2.91-1.13s-1.06-1.67-1.01-2.82h1.77c-.04.74.14,1.33.53,1.77s.96.68,1.7.71c.83.03,1.53-.21,2.08-.71s.87-1.17.95-2.01c.07-.77-.1-1.38-.53-1.81s-1.05-.66-1.89-.69h-1.36s.23-1.48.23-1.48Z"/>
    <path d="m174.48,479.72c0,1.45-.19,2.84-.57,4.17s-.96,2.56-1.75,3.69-1.61,1.93-2.47,2.4l-.38-1.1c1-.77,1.81-1.96,2.42-3.58s.92-3.41.93-5.39v-.31c0-1.37-.14-2.64-.43-3.81s-.69-2.23-1.2-3.16-1.09-1.66-1.72-2.18l.38-1.1c.86.48,1.68,1.27,2.46,2.38s1.36,2.34,1.75,3.68.58,2.78.58,4.31Z"/>
  </g>
  <g>
    <path d="m28.45,396.66l4.65,11.6,4.65-11.6h2.43v14.22h-1.88v-5.54l.18-5.98-4.67,11.51h-1.44l-4.66-11.48.19,5.95v5.54h-1.88v-14.22h2.42Z"/>
    <path d="m47.59,411.07c-1.43,0-2.6-.47-3.5-1.41s-1.35-2.2-1.35-3.77v-.33c0-1.05.2-1.98.6-2.81s.96-1.47,1.68-1.93,1.5-.7,2.34-.7c1.37,0,2.44.45,3.2,1.36s1.14,2.2,1.14,3.89v.75h-7.16c.03,1.04.33,1.88.91,2.52s1.32.96,2.22.96c.64,0,1.18-.13,1.62-.39s.83-.61,1.16-1.04l1.1.86c-.89,1.36-2.21,2.04-3.98,2.04Zm-.22-9.47c-.73,0-1.34.27-1.84.8s-.8,1.27-.92,2.23h5.29v-.14c-.05-.92-.3-1.63-.74-2.13s-1.04-.76-1.8-.76Z"/>
    <path d="m58.91,401.93c-.27-.05-.57-.07-.89-.07-1.18,0-1.99.5-2.41,1.51v7.5h-1.81v-10.57h1.76l.03,1.22c.59-.94,1.43-1.42,2.52-1.42.35,0,.62.05.8.14v1.68Z"/>
    <path d="m60.14,405.51c0-1.65.38-2.96,1.14-3.93s1.77-1.46,3.03-1.46,2.29.46,3.02,1.37l.09-1.17h1.65v10.31c0,1.37-.41,2.44-1.22,3.23s-1.9,1.18-3.27,1.18c-.76,0-1.51-.16-2.24-.49s-1.29-.77-1.67-1.34l.94-1.08c.77.96,1.72,1.44,2.84,1.44.88,0,1.56-.25,2.06-.74s.74-1.19.74-2.09v-.91c-.72.83-1.71,1.25-2.96,1.25s-2.24-.5-3-1.49-1.15-2.35-1.15-4.07Zm1.82.21c0,1.19.24,2.13.73,2.81s1.17,1.02,2.05,1.02c1.14,0,1.98-.52,2.51-1.55v-4.82c-.55-1.01-1.38-1.51-2.49-1.51-.88,0-1.57.34-2.06,1.03s-.74,1.7-.74,3.04Z"/>
    <path d="m76.17,411.07c-1.43,0-2.6-.47-3.5-1.41s-1.35-2.2-1.35-3.77v-.33c0-1.05.2-1.98.6-2.81s.96-1.47,1.68-1.93,1.5-.7,2.34-.7c1.37,0,2.44.45,3.2,1.36s1.14,2.2,1.14,3.89v.75h-7.16c.03,1.04.33,1.88.91,2.52s1.32.96,2.22.96c.64,0,1.18-.13,1.62-.39s.83-.61,1.16-1.04l1.1.86c-.89,1.36-2.21,2.04-3.98,2.04Zm-.22-9.47c-.73,0-1.34.27-1.84.8s-.8,1.27-.92,2.23h5.29v-.14c-.05-.92-.3-1.63-.74-2.13s-1.04-.76-1.8-.76Z"/>
    <path d="m82.32,405.11c0-1.47.2-2.88.59-4.24s.98-2.58,1.76-3.69,1.59-1.89,2.43-2.34l.37,1.19c-.95.73-1.73,1.84-2.34,3.34s-.94,3.17-1,5.03v.83c0,2.51.45,4.69,1.37,6.54.55,1.11,1.21,1.97,1.97,2.6l-.37,1.1c-.87-.48-1.69-1.29-2.48-2.42-1.54-2.21-2.3-4.86-2.3-7.94Z"/>
    <path d="m97.36,407.16h-5.96l-1.34,3.72h-1.93l5.43-14.22h1.64l5.44,14.22h-1.92l-1.36-3.72Zm-5.39-1.53h4.83l-2.42-6.65-2.41,6.65Z"/>
    <path d="m106.01,396.11h-1.87v16.33h1.87v1.48h-3.68v-19.3h3.68v1.48Z"/>
    <path d="m110.81,411.07c-1.2-.03-2.1-.45-2.7-1.27s-.87-2.01-.82-3.56c.01-.48.05-.96.11-1.43l.35-2.37c.31-2.02.91-3.54,1.79-4.53s2.04-1.48,3.48-1.45c1.21.03,2.11.44,2.71,1.25s.87,1.97.83,3.5c-.02.49-.06.97-.12,1.44l-.34,2.29c-.34,2.14-.95,3.71-1.83,4.7s-2.02,1.47-3.46,1.44Zm3.92-8.75c.09-.79.13-1.4.13-1.84-.03-1.65-.67-2.5-1.92-2.55-.91-.03-1.65.3-2.21,1.01s-.96,1.81-1.18,3.33l-.42,2.83c-.09.75-.13,1.37-.13,1.85.03,1.73.67,2.61,1.91,2.66.87.04,1.58-.28,2.14-.96s.96-1.75,1.21-3.22l.47-3.11Z"/>
    <path d="m118.8,408.83c.32,0,.58.09.79.29s.31.46.3.78-.11.58-.32.78-.47.3-.78.32-.57-.08-.77-.27-.3-.45-.3-.77.1-.58.3-.8.46-.32.78-.34Z"/>
    <path d="m124.01,408.83c.32,0,.58.09.79.29s.31.46.3.78-.11.58-.32.78-.47.3-.78.32-.57-.08-.77-.27-.3-.45-.3-.77.1-.58.3-.8.46-.32.78-.34Z"/>
    <path d="m129.21,408.83c.32,0,.58.09.79.29s.31.46.3.78-.11.58-.32.78-.47.3-.78.32-.57-.08-.77-.27-.3-.45-.3-.77.1-.58.3-.8.46-.32.78-.34Z"/>
    <path d="m136.88,402.89h1.17c.86,0,1.58-.22,2.17-.67s.93-1.07,1.01-1.84c.08-.75-.06-1.35-.42-1.78s-.9-.66-1.59-.67c-.74-.01-1.37.2-1.89.65s-.83,1.05-.95,1.8h-1.75c.11-1.16.61-2.11,1.5-2.85s1.95-1.09,3.18-1.08c1.19.03,2.13.4,2.81,1.12s.97,1.67.88,2.85c-.06.67-.32,1.28-.77,1.84s-1.09,1.01-1.89,1.38c.64.26,1.13.67,1.45,1.24s.45,1.22.4,1.98c-.1,1.28-.61,2.31-1.53,3.1s-2.03,1.16-3.33,1.13c-1.22-.03-2.19-.4-2.91-1.13s-1.06-1.67-1.01-2.82h1.77c-.04.74.14,1.33.53,1.77s.96.68,1.7.71c.83.03,1.53-.21,2.08-.71s.87-1.17.95-2.01c.07-.77-.1-1.38-.53-1.81s-1.05-.66-1.89-.69h-1.36s.23-1.48.23-1.48Z"/>
    <path d="m143.9,394.63h3.69v19.3h-3.69v-1.48h1.88v-16.33h-1.88v-1.48Z"/>
    <path d="m150.42,413.71l-1.03-.7c.61-.85.93-1.73.96-2.64v-1.63h1.77v1.42c0,.66-.16,1.32-.48,1.97s-.73,1.18-1.22,1.58Z"/>
    <path d="m163.84,410.88h-1.78l2.09-11.99-3.78,1.33.3-1.72,5.27-1.9h.31l-2.42,14.29Z"/>
    <path d="m174.48,405.2c0,1.45-.19,2.84-.57,4.17s-.96,2.56-1.75,3.69-1.61,1.93-2.47,2.4l-.38-1.1c1-.77,1.81-1.96,2.42-3.58s.92-3.41.93-5.39v-.31c0-1.37-.14-2.64-.43-3.81s-.69-2.23-1.2-3.16-1.09-1.66-1.72-2.18l.38-1.1c.86.48,1.68,1.27,2.46,2.38s1.36,2.34,1.75,3.68.58,2.78.58,4.31Z"/>
  </g>
  <g>
    <path d="m28.45,320.95l4.65,11.6,4.65-11.6h2.43v14.22h-1.88v-5.54l.18-5.98-4.67,11.51h-1.44l-4.66-11.48.19,5.95v5.54h-1.88v-14.22h2.42Z"/>
    <path d="m47.59,335.36c-1.43,0-2.6-.47-3.5-1.41s-1.35-2.2-1.35-3.77v-.33c0-1.05.2-1.98.6-2.81s.96-1.47,1.68-1.93,1.5-.7,2.34-.7c1.37,0,2.44.45,3.2,1.36s1.14,2.2,1.14,3.89v.75h-7.16c.03,1.04.33,1.88.91,2.52s1.32.96,2.22.96c.64,0,1.18-.13,1.62-.39s.83-.61,1.16-1.04l1.1.86c-.89,1.36-2.21,2.04-3.98,2.04Zm-.22-9.47c-.73,0-1.34.27-1.84.8s-.8,1.27-.92,2.23h5.29v-.14c-.05-.92-.3-1.63-.74-2.13s-1.04-.76-1.8-.76Z"/>
    <path d="m58.91,326.22c-.27-.05-.57-.07-.89-.07-1.18,0-1.99.5-2.41,1.51v7.5h-1.81v-10.57h1.76l.03,1.22c.59-.94,1.43-1.42,2.52-1.42.35,0,.62.05.8.14v1.68Z"/>
    <path d="m60.14,329.79c0-1.65.38-2.96,1.14-3.93s1.77-1.46,3.03-1.46,2.29.46,3.02,1.37l.09-1.17h1.65v10.31c0,1.37-.41,2.44-1.22,3.23s-1.9,1.18-3.27,1.18c-.76,0-1.51-.16-2.24-.49s-1.29-.77-1.67-1.34l.94-1.08c.77.96,1.72,1.44,2.84,1.44.88,0,1.56-.25,2.06-.74s.74-1.19.74-2.09v-.91c-.72.83-1.71,1.25-2.96,1.25s-2.24-.5-3-1.49-1.15-2.35-1.15-4.07Zm1.82.21c0,1.19.24,2.13.73,2.81s1.17,1.02,2.05,1.02c1.14,0,1.98-.52,2.51-1.55v-4.82c-.55-1.01-1.38-1.51-2.49-1.51-.88,0-1.57.34-2.06,1.03s-.74,1.7-.74,3.04Z"/>
    <path d="m76.17,335.36c-1.43,0-2.6-.47-3.5-1.41s-1.35-2.2-1.35-3.77v-.33c0-1.05.2-1.98.6-2.81s.96-1.47,1.68-1.93,1.5-.7,2.34-.7c1.37,0,2.44.45,3.2,1.36s1.14,2.2,1.14,3.89v.75h-7.16c.03,1.04.33,1.88.91,2.52s1.32.96,2.22.96c.64,0,1.18-.13,1.62-.39s.83-.61,1.16-1.04l1.1.86c-.89,1.36-2.21,2.04-3.98,2.04Zm-.22-9.47c-.73,0-1.34.27-1.84.8s-.8,1.27-.92,2.23h5.29v-.14c-.05-.92-.3-1.63-.74-2.13s-1.04-.76-1.8-.76Z"/>
    <path d="m82.32,329.39c0-1.47.2-2.88.59-4.24s.98-2.58,1.76-3.69,1.59-1.89,2.43-2.34l.37,1.19c-.95.73-1.73,1.84-2.34,3.34s-.94,3.17-1,5.03v.83c0,2.51.45,4.69,1.37,6.54.55,1.11,1.21,1.97,1.97,2.6l-.37,1.1c-.87-.48-1.69-1.29-2.48-2.42-1.54-2.21-2.3-4.86-2.3-7.94Z"/>
    <path d="m97.36,331.44h-5.96l-1.34,3.72h-1.93l5.43-14.22h1.64l5.44,14.22h-1.92l-1.36-3.72Zm-5.39-1.53h4.83l-2.42-6.65-2.41,6.65Z"/>
    <path d="m106.01,320.4h-1.87v16.33h1.87v1.48h-3.68v-19.3h3.68v1.48Z"/>
    <path d="m110.81,335.36c-1.2-.03-2.1-.45-2.7-1.27s-.87-2.01-.82-3.56c.01-.48.05-.96.11-1.43l.35-2.37c.31-2.02.91-3.54,1.79-4.53s2.04-1.48,3.48-1.45c1.21.03,2.11.44,2.71,1.25s.87,1.97.83,3.5c-.02.49-.06.97-.12,1.44l-.34,2.29c-.34,2.14-.95,3.71-1.83,4.7s-2.02,1.47-3.46,1.44Zm3.92-8.75c.09-.79.13-1.4.13-1.84-.03-1.65-.67-2.5-1.92-2.55-.91-.03-1.65.3-2.21,1.01s-.96,1.81-1.18,3.33l-.42,2.83c-.09.75-.13,1.37-.13,1.85.03,1.73.67,2.61,1.91,2.66.87.04,1.58-.28,2.14-.96s.96-1.75,1.21-3.22l.47-3.11Z"/>
    <path d="m118.8,333.11c.32,0,.58.09.79.29s.31.46.3.78-.11.58-.32.78-.47.3-.78.32-.57-.08-.77-.27-.3-.45-.3-.77.1-.58.3-.8.46-.32.78-.34Z"/>
    <path d="m124.01,333.11c.32,0,.58.09.79.29s.31.46.3.78-.11.58-.32.78-.47.3-.78.32-.57-.08-.77-.27-.3-.45-.3-.77.1-.58.3-.8.46-.32.78-.34Z"/>
    <path d="m129.21,333.11c.32,0,.58.09.79.29s.31.46.3.78-.11.58-.32.78-.47.3-.78.32-.57-.08-.77-.27-.3-.45-.3-.77.1-.58.3-.8.46-.32.78-.34Z"/>
    <path d="m138.71,335.16h-1.78l2.09-11.99-3.78,1.33.3-1.72,5.27-1.9h.31l-2.42,14.29Z"/>
    <path d="m143.9,318.91h3.69v19.3h-3.69v-1.48h1.88v-16.33h-1.88v-1.48Z"/>
    <path d="m150.42,338l-1.03-.7c.61-.85.93-1.73.96-2.64v-1.63h1.77v1.42c0,.66-.16,1.32-.48,1.97s-.73,1.18-1.22,1.58Z"/>
    <path d="m162.55,335.36c-1.2-.03-2.1-.45-2.7-1.27s-.87-2.01-.82-3.56c.01-.48.05-.96.11-1.43l.35-2.37c.31-2.02.91-3.54,1.79-4.53s2.04-1.48,3.48-1.45c1.21.03,2.11.44,2.71,1.25s.87,1.97.83,3.5c-.02.49-.06.97-.12,1.44l-.34,2.29c-.34,2.14-.95,3.71-1.83,4.7s-2.02,1.47-3.46,1.44Zm3.92-8.75c.09-.79.13-1.4.13-1.84-.03-1.65-.67-2.5-1.92-2.55-.91-.03-1.65.3-2.21,1.01s-.96,1.81-1.18,3.33l-.42,2.83c-.09.75-.13,1.37-.13,1.85.03,1.73.67,2.61,1.91,2.66.87.04,1.58-.28,2.14-.96s.96-1.75,1.21-3.22l.47-3.11Z"/>
    <path d="m174.48,329.49c0,1.45-.19,2.84-.57,4.17s-.96,2.56-1.75,3.69-1.61,1.93-2.47,2.4l-.38-1.1c1-.77,1.81-1.96,2.42-3.58s.92-3.41.93-5.39v-.31c0-1.37-.14-2.64-.43-3.81s-.69-2.23-1.2-3.16-1.09-1.66-1.72-2.18l.38-1.1c.86.48,1.68,1.27,2.46,2.38s1.36,2.34,1.75,3.68.58,2.78.58,4.31Z"/>
  </g>
  <g>
    <path d="m12.77,274.16l4.65,11.6,4.65-11.6h2.43v14.22h-1.88v-5.54l.18-5.98-4.67,11.51h-1.44l-4.66-11.48.19,5.95v5.54h-1.88v-14.22h2.42Z"/>
    <path d="m31.91,288.58c-1.43,0-2.6-.47-3.5-1.41s-1.35-2.2-1.35-3.77v-.33c0-1.05.2-1.98.6-2.81s.96-1.47,1.68-1.93,1.5-.7,2.34-.7c1.37,0,2.44.45,3.2,1.36s1.14,2.2,1.14,3.89v.75h-7.16c.03,1.04.33,1.88.91,2.52s1.32.96,2.22.96c.64,0,1.18-.13,1.62-.39s.83-.61,1.16-1.04l1.1.86c-.89,1.36-2.21,2.04-3.98,2.04Zm-.22-9.47c-.73,0-1.34.27-1.84.8s-.8,1.27-.92,2.23h5.29v-.14c-.05-.92-.3-1.63-.74-2.13s-1.04-.76-1.8-.76Z"/>
    <path d="m43.23,279.44c-.27-.05-.57-.07-.89-.07-1.18,0-1.99.5-2.41,1.51v7.5h-1.81v-10.57h1.76l.03,1.22c.59-.94,1.43-1.42,2.52-1.42.35,0,.62.05.8.14v1.68Z"/>
    <path d="m44.46,283.01c0-1.65.38-2.96,1.14-3.93s1.77-1.46,3.03-1.46,2.29.46,3.02,1.37l.09-1.17h1.65v10.31c0,1.37-.41,2.44-1.22,3.23s-1.9,1.18-3.27,1.18c-.76,0-1.51-.16-2.24-.49s-1.29-.77-1.67-1.34l.94-1.08c.77.96,1.72,1.44,2.84,1.44.88,0,1.56-.25,2.06-.74s.74-1.19.74-2.09v-.91c-.72.83-1.71,1.25-2.96,1.25s-2.24-.5-3-1.49-1.15-2.35-1.15-4.07Zm1.82.21c0,1.19.24,2.13.73,2.81s1.17,1.02,2.05,1.02c1.14,0,1.98-.52,2.51-1.55v-4.82c-.55-1.01-1.38-1.51-2.49-1.51-.88,0-1.57.34-2.06,1.03s-.74,1.7-.74,3.04Z"/>
    <path d="m60.49,288.58c-1.43,0-2.6-.47-3.5-1.41s-1.35-2.2-1.35-3.77v-.33c0-1.05.2-1.98.6-2.81s.96-1.47,1.68-1.93,1.5-.7,2.34-.7c1.37,0,2.44.45,3.2,1.36s1.14,2.2,1.14,3.89v.75h-7.16c.03,1.04.33,1.88.91,2.52s1.32.96,2.22.96c.64,0,1.18-.13,1.62-.39s.83-.61,1.16-1.04l1.1.86c-.89,1.36-2.21,2.04-3.98,2.04Zm-.22-9.47c-.73,0-1.34.27-1.84.8s-.8,1.27-.92,2.23h5.29v-.14c-.05-.92-.3-1.63-.74-2.13s-1.04-.76-1.8-.76Z"/>
    <path d="m72.85,285.58c0-.49-.18-.87-.55-1.14s-1.01-.5-1.92-.7-1.64-.43-2.18-.7-.93-.6-1.19-.98-.39-.83-.39-1.35c0-.87.37-1.6,1.1-2.2s1.67-.9,2.81-.9c1.2,0,2.17.31,2.92.93s1.12,1.41,1.12,2.37h-1.82c0-.5-.21-.92-.63-1.28s-.95-.54-1.59-.54-1.17.14-1.54.43-.56.66-.56,1.12c0,.44.17.76.52.99s.97.43,1.87.63,1.63.44,2.19.72.97.62,1.25,1.01.41.87.41,1.44c0,.94-.38,1.7-1.13,2.27s-1.74.85-2.94.85c-.85,0-1.59-.15-2.25-.45s-1.16-.72-1.53-1.25-.55-1.12-.55-1.74h1.81c.03.61.28,1.09.73,1.44s1.05.53,1.79.53c.68,0,1.23-.14,1.65-.42s.62-.65.62-1.11Z"/>
    <path d="m76.54,283c0-1.04.2-1.97.61-2.79s.97-1.46,1.7-1.91,1.55-.67,2.49-.67c1.44,0,2.6.5,3.49,1.49s1.33,2.32,1.33,3.97v.13c0,1.03-.2,1.95-.59,2.77s-.96,1.45-1.69,1.91-1.57.68-2.52.68c-1.43,0-2.59-.5-3.48-1.49s-1.33-2.31-1.33-3.96v-.13Zm1.82.21c0,1.17.27,2.11.82,2.82s1.27,1.06,2.18,1.06,1.65-.36,2.19-1.08.81-1.73.81-3.02c0-1.16-.28-2.1-.83-2.82s-1.28-1.08-2.19-1.08-1.61.35-2.16,1.06-.82,1.73-.82,3.05Z"/>
    <path d="m93.53,279.44c-.27-.05-.57-.07-.89-.07-1.18,0-1.99.5-2.41,1.51v7.5h-1.81v-10.57h1.76l.03,1.22c.59-.94,1.43-1.42,2.52-1.42.35,0,.62.05.8.14v1.68Z"/>
    <path d="m98.13,275.26v2.56h1.97v1.4h-1.97v6.56c0,.42.09.74.26.95s.48.32.9.32c.21,0,.5-.04.86-.12v1.46c-.48.13-.94.19-1.39.19-.81,0-1.42-.24-1.83-.73s-.62-1.18-.62-2.08v-6.55h-1.92v-1.4h1.92v-2.56h1.81Z"/>
    <path d="m102.14,282.61c0-1.47.2-2.88.59-4.24s.98-2.58,1.76-3.69,1.59-1.89,2.43-2.34l.37,1.19c-.95.73-1.73,1.84-2.34,3.34s-.94,3.17-1,5.03v.83c0,2.51.45,4.69,1.37,6.54.55,1.11,1.21,1.97,1.97,2.6l-.37,1.1c-.87-.48-1.69-1.29-2.48-2.42-1.54-2.21-2.3-4.86-2.3-7.94Z"/>
    <path d="m117.18,284.66h-5.96l-1.34,3.72h-1.93l5.43-14.22h1.64l5.44,14.22h-1.92l-1.36-3.72Zm-5.39-1.53h4.83l-2.42-6.65-2.41,6.65Z"/>
    <path d="m125.83,273.62h-1.87v16.33h1.87v1.48h-3.68v-19.3h3.68v1.48Z"/>
    <path d="m131.93,288.38h-1.78l2.09-11.99-3.78,1.33.3-1.72,5.27-1.9h.31l-2.42,14.29Z"/>
    <path d="m138.63,286.33c.32,0,.58.09.79.29s.31.46.3.78-.11.58-.32.78-.47.3-.78.32-.57-.08-.77-.27-.3-.45-.3-.77.1-.58.3-.8.46-.32.78-.34Z"/>
    <path d="m143.83,286.33c.32,0,.58.09.79.29s.31.46.3.78-.11.58-.32.78-.47.3-.78.32-.57-.08-.77-.27-.3-.45-.3-.77.1-.58.3-.8.46-.32.78-.34Z"/>
    <path d="m149.04,286.33c.32,0,.58.09.79.29s.31.46.3.78-.11.58-.32.78-.47.3-.78.32-.57-.08-.77-.27-.3-.45-.3-.77.1-.58.3-.8.46-.32.78-.34Z"/>
    <path d="m158.54,288.38h-1.78l2.09-11.99-3.78,1.33.3-1.72,5.27-1.9h.31l-2.42,14.29Z"/>
    <path d="m163.72,272.13h3.69v19.3h-3.69v-1.48h1.88v-16.33h-1.88v-1.48Z"/>
    <path d="m174.48,282.71c0,1.45-.19,2.84-.57,4.17s-.96,2.56-1.75,3.69-1.61,1.93-2.47,2.4l-.38-1.1c1-.77,1.81-1.96,2.42-3.58s.92-3.41.93-5.39v-.31c0-1.37-.14-2.64-.43-3.81s-.69-2.23-1.2-3.16-1.09-1.66-1.72-2.18l.38-1.1c.86.48,1.68,1.27,2.46,2.38s1.36,2.34,1.75,3.68.58,2.78.58,4.31Z"/>
  </g>
  <g>
    <path d="m12.77,244.65l4.65,11.6,4.65-11.6h2.43v14.22h-1.88v-5.54l.18-5.98-4.67,11.51h-1.44l-4.66-11.48.19,5.95v5.54h-1.88v-14.22h2.42Z"/>
    <path d="m31.91,259.06c-1.43,0-2.6-.47-3.5-1.41s-1.35-2.2-1.35-3.77v-.33c0-1.05.2-1.98.6-2.81s.96-1.47,1.68-1.93,1.5-.7,2.34-.7c1.37,0,2.44.45,3.2,1.36s1.14,2.2,1.14,3.89v.75h-7.16c.03,1.04.33,1.88.91,2.52s1.32.96,2.22.96c.64,0,1.18-.13,1.62-.39s.83-.61,1.16-1.04l1.1.86c-.89,1.36-2.21,2.04-3.98,2.04Zm-.22-9.47c-.73,0-1.34.27-1.84.8s-.8,1.27-.92,2.23h5.29v-.14c-.05-.92-.3-1.63-.74-2.13s-1.04-.76-1.8-.76Z"/>
    <path d="m43.23,249.92c-.27-.05-.57-.07-.89-.07-1.18,0-1.99.5-2.41,1.51v7.5h-1.81v-10.57h1.76l.03,1.22c.59-.94,1.43-1.42,2.52-1.42.35,0,.62.05.8.14v1.68Z"/>
    <path d="m44.46,253.49c0-1.65.38-2.96,1.14-3.93s1.77-1.46,3.03-1.46,2.29.46,3.02,1.37l.09-1.17h1.65v10.31c0,1.37-.41,2.44-1.22,3.23s-1.9,1.18-3.27,1.18c-.76,0-1.51-.16-2.24-.49s-1.29-.77-1.67-1.34l.94-1.08c.77.96,1.72,1.44,2.84,1.44.88,0,1.56-.25,2.06-.74s.74-1.19.74-2.09v-.91c-.72.83-1.71,1.25-2.96,1.25s-2.24-.5-3-1.49-1.15-2.35-1.15-4.07Zm1.82.21c0,1.19.24,2.13.73,2.81s1.17,1.02,2.05,1.02c1.14,0,1.98-.52,2.51-1.55v-4.82c-.55-1.01-1.38-1.51-2.49-1.51-.88,0-1.57.34-2.06,1.03s-.74,1.7-.74,3.04Z"/>
    <path d="m60.49,259.06c-1.43,0-2.6-.47-3.5-1.41s-1.35-2.2-1.35-3.77v-.33c0-1.05.2-1.98.6-2.81s.96-1.47,1.68-1.93,1.5-.7,2.34-.7c1.37,0,2.44.45,3.2,1.36s1.14,2.2,1.14,3.89v.75h-7.16c.03,1.04.33,1.88.91,2.52s1.32.96,2.22.96c.64,0,1.18-.13,1.62-.39s.83-.61,1.16-1.04l1.1.86c-.89,1.36-2.21,2.04-3.98,2.04Zm-.22-9.47c-.73,0-1.34.27-1.84.8s-.8,1.27-.92,2.23h5.29v-.14c-.05-.92-.3-1.63-.74-2.13s-1.04-.76-1.8-.76Z"/>
    <path d="m72.85,256.06c0-.49-.18-.87-.55-1.14s-1.01-.5-1.92-.7-1.64-.43-2.18-.7-.93-.6-1.19-.98-.39-.83-.39-1.35c0-.87.37-1.6,1.1-2.2s1.67-.9,2.81-.9c1.2,0,2.17.31,2.92.93s1.12,1.41,1.12,2.37h-1.82c0-.5-.21-.92-.63-1.28s-.95-.54-1.59-.54-1.17.14-1.54.43-.56.66-.56,1.12c0,.44.17.76.52.99s.97.43,1.87.63,1.63.44,2.19.72.97.62,1.25,1.01.41.87.41,1.44c0,.94-.38,1.7-1.13,2.27s-1.74.85-2.94.85c-.85,0-1.59-.15-2.25-.45s-1.16-.72-1.53-1.25-.55-1.12-.55-1.74h1.81c.03.61.28,1.09.73,1.44s1.05.53,1.79.53c.68,0,1.23-.14,1.65-.42s.62-.65.62-1.11Z"/>
    <path d="m76.54,253.48c0-1.04.2-1.97.61-2.79s.97-1.46,1.7-1.91,1.55-.67,2.49-.67c1.44,0,2.6.5,3.49,1.49s1.33,2.32,1.33,3.97v.13c0,1.03-.2,1.95-.59,2.77s-.96,1.45-1.69,1.91-1.57.68-2.52.68c-1.43,0-2.59-.5-3.48-1.49s-1.33-2.31-1.33-3.96v-.13Zm1.82.21c0,1.17.27,2.11.82,2.82s1.27,1.06,2.18,1.06,1.65-.36,2.19-1.08.81-1.73.81-3.02c0-1.16-.28-2.1-.83-2.82s-1.28-1.08-2.19-1.08-1.61.35-2.16,1.06-.82,1.73-.82,3.05Z"/>
    <path d="m93.53,249.92c-.27-.05-.57-.07-.89-.07-1.18,0-1.99.5-2.41,1.51v7.5h-1.81v-10.57h1.76l.03,1.22c.59-.94,1.43-1.42,2.52-1.42.35,0,.62.05.8.14v1.68Z"/>
    <path d="m98.13,245.74v2.56h1.97v1.4h-1.97v6.56c0,.42.09.74.26.95s.48.32.9.32c.21,0,.5-.04.86-.12v1.46c-.48.13-.94.19-1.39.19-.81,0-1.42-.24-1.83-.73s-.62-1.18-.62-2.08v-6.55h-1.92v-1.4h1.92v-2.56h1.81Z"/>
    <path d="m102.14,253.09c0-1.47.2-2.88.59-4.24s.98-2.58,1.76-3.69,1.59-1.89,2.43-2.34l.37,1.19c-.95.73-1.73,1.84-2.34,3.34s-.94,3.17-1,5.03v.83c0,2.51.45,4.69,1.37,6.54.55,1.11,1.21,1.97,1.97,2.6l-.37,1.1c-.87-.48-1.69-1.29-2.48-2.42-1.54-2.21-2.3-4.86-2.3-7.94Z"/>
    <path d="m117.18,255.14h-5.96l-1.34,3.72h-1.93l5.43-14.22h1.64l5.44,14.22h-1.92l-1.36-3.72Zm-5.39-1.53h4.83l-2.42-6.65-2.41,6.65Z"/>
    <path d="m125.83,244.1h-1.87v16.33h1.87v1.48h-3.68v-19.3h3.68v1.48Z"/>
    <path d="m130.64,259.06c-1.2-.03-2.1-.45-2.7-1.27s-.87-2.01-.82-3.56c.01-.48.05-.96.11-1.43l.35-2.37c.31-2.02.91-3.54,1.79-4.53s2.04-1.48,3.48-1.45c1.21.03,2.11.44,2.71,1.25s.87,1.97.83,3.5c-.02.49-.06.97-.12,1.44l-.34,2.29c-.34,2.14-.95,3.71-1.83,4.7s-2.02,1.47-3.46,1.44Zm3.92-8.75c.09-.79.13-1.4.13-1.84-.03-1.65-.67-2.5-1.92-2.55-.91-.03-1.65.3-2.21,1.01s-.96,1.81-1.18,3.33l-.42,2.83c-.09.75-.13,1.37-.13,1.85.03,1.73.67,2.61,1.91,2.66.87.04,1.58-.28,2.14-.96s.96-1.75,1.21-3.22l.47-3.11Z"/>
    <path d="m138.63,256.81c.32,0,.58.09.79.29s.31.46.3.78-.11.58-.32.78-.47.3-.78.32-.57-.08-.77-.27-.3-.45-.3-.77.1-.58.3-.8.46-.32.78-.34Z"/>
    <path d="m143.83,256.81c.32,0,.58.09.79.29s.31.46.3.78-.11.58-.32.78-.47.3-.78.32-.57-.08-.77-.27-.3-.45-.3-.77.1-.58.3-.8.46-.32.78-.34Z"/>
    <path d="m149.04,256.81c.32,0,.58.09.79.29s.31.46.3.78-.11.58-.32.78-.47.3-.78.32-.57-.08-.77-.27-.3-.45-.3-.77.1-.58.3-.8.46-.32.78-.34Z"/>
    <path d="m157.25,259.06c-1.2-.03-2.1-.45-2.7-1.27s-.87-2.01-.82-3.56c.01-.48.05-.96.11-1.43l.35-2.37c.31-2.02.91-3.54,1.79-4.53s2.04-1.48,3.48-1.45c1.21.03,2.11.44,2.71,1.25s.87,1.97.83,3.5c-.02.49-.06.97-.12,1.44l-.34,2.29c-.34,2.14-.95,3.71-1.83,4.7s-2.02,1.47-3.46,1.44Zm3.92-8.75c.09-.79.13-1.4.13-1.84-.03-1.65-.67-2.5-1.92-2.55-.91-.03-1.65.3-2.21,1.01s-.96,1.81-1.18,3.33l-.42,2.83c-.09.75-.13,1.37-.13,1.85.03,1.73.67,2.61,1.91,2.66.87.04,1.58-.28,2.14-.96s.96-1.75,1.21-3.22l.47-3.11Z"/>
    <path d="m163.72,242.62h3.69v19.3h-3.69v-1.48h1.88v-16.33h-1.88v-1.48Z"/>
    <path d="m174.48,253.19c0,1.45-.19,2.84-.57,4.17s-.96,2.56-1.75,3.69-1.61,1.93-2.47,2.4l-.38-1.1c1-.77,1.81-1.96,2.42-3.58s.92-3.41.93-5.39v-.31c0-1.37-.14-2.64-.43-3.81s-.69-2.23-1.2-3.16-1.09-1.66-1.72-2.18l.38-1.1c.86.48,1.68,1.27,2.46,2.38s1.36,2.34,1.75,3.68.58,2.78.58,4.31Z"/>
  </g>
  <g>
    <path d="m12.77,168.52l4.65,11.6,4.65-11.6h2.43v14.22h-1.88v-5.54l.18-5.98-4.67,11.51h-1.44l-4.66-11.48.19,5.95v5.54h-1.88v-14.22h2.42Z"/>
    <path d="m31.91,182.94c-1.43,0-2.6-.47-3.5-1.41s-1.35-2.2-1.35-3.77v-.33c0-1.05.2-1.98.6-2.81s.96-1.47,1.68-1.93,1.5-.7,2.34-.7c1.37,0,2.44.45,3.2,1.36s1.14,2.2,1.14,3.89v.75h-7.16c.03,1.04.33,1.88.91,2.52s1.32.96,2.22.96c.64,0,1.18-.13,1.62-.39s.83-.61,1.16-1.04l1.1.86c-.89,1.36-2.21,2.04-3.98,2.04Zm-.22-9.47c-.73,0-1.34.27-1.84.8s-.8,1.27-.92,2.23h5.29v-.14c-.05-.92-.3-1.63-.74-2.13s-1.04-.76-1.8-.76Z"/>
    <path d="m43.23,173.8c-.27-.05-.57-.07-.89-.07-1.18,0-1.99.5-2.41,1.51v7.5h-1.81v-10.57h1.76l.03,1.22c.59-.94,1.43-1.42,2.52-1.42.35,0,.62.05.8.14v1.68Z"/>
    <path d="m44.46,177.37c0-1.65.38-2.96,1.14-3.93s1.77-1.46,3.03-1.46,2.29.46,3.02,1.37l.09-1.17h1.65v10.31c0,1.37-.41,2.44-1.22,3.23s-1.9,1.18-3.27,1.18c-.76,0-1.51-.16-2.24-.49s-1.29-.77-1.67-1.34l.94-1.08c.77.96,1.72,1.44,2.84,1.44.88,0,1.56-.25,2.06-.74s.74-1.19.74-2.09v-.91c-.72.83-1.71,1.25-2.96,1.25s-2.24-.5-3-1.49-1.15-2.35-1.15-4.07Zm1.82.21c0,1.19.24,2.13.73,2.81s1.17,1.02,2.05,1.02c1.14,0,1.98-.52,2.51-1.55v-4.82c-.55-1.01-1.38-1.51-2.49-1.51-.88,0-1.57.34-2.06,1.03s-.74,1.7-.74,3.04Z"/>
    <path d="m60.49,182.94c-1.43,0-2.6-.47-3.5-1.41s-1.35-2.2-1.35-3.77v-.33c0-1.05.2-1.98.6-2.81s.96-1.47,1.68-1.93,1.5-.7,2.34-.7c1.37,0,2.44.45,3.2,1.36s1.14,2.2,1.14,3.89v.75h-7.16c.03,1.04.33,1.88.91,2.52s1.32.96,2.22.96c.64,0,1.18-.13,1.62-.39s.83-.61,1.16-1.04l1.1.86c-.89,1.36-2.21,2.04-3.98,2.04Zm-.22-9.47c-.73,0-1.34.27-1.84.8s-.8,1.27-.92,2.23h5.29v-.14c-.05-.92-.3-1.63-.74-2.13s-1.04-.76-1.8-.76Z"/>
    <path d="m72.85,179.94c0-.49-.18-.87-.55-1.14s-1.01-.5-1.92-.7-1.64-.43-2.18-.7-.93-.6-1.19-.98-.39-.83-.39-1.35c0-.87.37-1.6,1.1-2.2s1.67-.9,2.81-.9c1.2,0,2.17.31,2.92.93s1.12,1.41,1.12,2.37h-1.82c0-.5-.21-.92-.63-1.28s-.95-.54-1.59-.54-1.17.14-1.54.43-.56.66-.56,1.12c0,.44.17.76.52.99s.97.43,1.87.63,1.63.44,2.19.72.97.62,1.25,1.01.41.87.41,1.44c0,.94-.38,1.7-1.13,2.27s-1.74.85-2.94.85c-.85,0-1.59-.15-2.25-.45s-1.16-.72-1.53-1.25-.55-1.12-.55-1.74h1.81c.03.61.28,1.09.73,1.44s1.05.53,1.79.53c.68,0,1.23-.14,1.65-.42s.62-.65.62-1.11Z"/>
    <path d="m76.54,177.36c0-1.04.2-1.97.61-2.79s.97-1.46,1.7-1.91,1.55-.67,2.49-.67c1.44,0,2.6.5,3.49,1.49s1.33,2.32,1.33,3.97v.13c0,1.03-.2,1.95-.59,2.77s-.96,1.45-1.69,1.91-1.57.68-2.52.68c-1.43,0-2.59-.5-3.48-1.49s-1.33-2.31-1.33-3.96v-.13Zm1.82.21c0,1.17.27,2.11.82,2.82s1.27,1.06,2.18,1.06,1.65-.36,2.19-1.08.81-1.73.81-3.02c0-1.16-.28-2.1-.83-2.82s-1.28-1.08-2.19-1.08-1.61.35-2.16,1.06-.82,1.73-.82,3.05Z"/>
    <path d="m93.53,173.8c-.27-.05-.57-.07-.89-.07-1.18,0-1.99.5-2.41,1.51v7.5h-1.81v-10.57h1.76l.03,1.22c.59-.94,1.43-1.42,2.52-1.42.35,0,.62.05.8.14v1.68Z"/>
    <path d="m98.13,169.62v2.56h1.97v1.4h-1.97v6.56c0,.42.09.74.26.95s.48.32.9.32c.21,0,.5-.04.86-.12v1.46c-.48.13-.94.19-1.39.19-.81,0-1.42-.24-1.83-.73s-.62-1.18-.62-2.08v-6.55h-1.92v-1.4h1.92v-2.56h1.81Z"/>
    <path d="m102.14,176.97c0-1.47.2-2.88.59-4.24s.98-2.58,1.76-3.69,1.59-1.89,2.43-2.34l.37,1.19c-.95.73-1.73,1.84-2.34,3.34s-.94,3.17-1,5.03v.83c0,2.51.45,4.69,1.37,6.54.55,1.11,1.21,1.97,1.97,2.6l-.37,1.1c-.87-.48-1.69-1.29-2.48-2.42-1.54-2.21-2.3-4.86-2.3-7.94Z"/>
    <path d="m117.18,179.02h-5.96l-1.34,3.72h-1.93l5.43-14.22h1.64l5.44,14.22h-1.92l-1.36-3.72Zm-5.39-1.53h4.83l-2.42-6.65-2.41,6.65Z"/>
    <path d="m125.83,167.98h-1.87v16.33h1.87v1.48h-3.68v-19.3h3.68v1.48Z"/>
    <path d="m130.64,182.94c-1.2-.03-2.1-.45-2.7-1.27s-.87-2.01-.82-3.56c.01-.48.05-.96.11-1.43l.35-2.37c.31-2.02.91-3.54,1.79-4.53s2.04-1.48,3.48-1.45c1.21.03,2.11.44,2.71,1.25s.87,1.97.83,3.5c-.02.49-.06.97-.12,1.44l-.34,2.29c-.34,2.14-.95,3.71-1.83,4.7s-2.02,1.47-3.46,1.44Zm3.92-8.75c.09-.79.13-1.4.13-1.84-.03-1.65-.67-2.5-1.92-2.55-.91-.03-1.65.3-2.21,1.01s-.96,1.81-1.18,3.33l-.42,2.83c-.09.75-.13,1.37-.13,1.85.03,1.73.67,2.61,1.91,2.66.87.04,1.58-.28,2.14-.96s.96-1.75,1.21-3.22l.47-3.11Z"/>
    <path d="m138.63,180.69c.32,0,.58.09.79.29s.31.46.3.78-.11.58-.32.78-.47.3-.78.32-.57-.08-.77-.27-.3-.45-.3-.77.1-.58.3-.8.46-.32.78-.34Z"/>
    <path d="m143.83,180.69c.32,0,.58.09.79.29s.31.46.3.78-.11.58-.32.78-.47.3-.78.32-.57-.08-.77-.27-.3-.45-.3-.77.1-.58.3-.8.46-.32.78-.34Z"/>
    <path d="m149.04,180.69c.32,0,.58.09.79.29s.31.46.3.78-.11.58-.32.78-.47.3-.78.32-.57-.08-.77-.27-.3-.45-.3-.77.1-.58.3-.8.46-.32.78-.34Z"/>
    <path d="m158.54,182.74h-1.78l2.09-11.99-3.78,1.33.3-1.72,5.27-1.9h.31l-2.42,14.29Z"/>
    <path d="m163.72,166.49h3.69v19.3h-3.69v-1.48h1.88v-16.33h-1.88v-1.48Z"/>
    <path d="m174.48,177.07c0,1.45-.19,2.84-.57,4.17s-.96,2.56-1.75,3.69-1.61,1.93-2.47,2.4l-.38-1.1c1-.77,1.81-1.96,2.42-3.58s.92-3.41.93-5.39v-.31c0-1.37-.14-2.64-.43-3.81s-.69-2.23-1.2-3.16-1.09-1.66-1.72-2.18l.38-1.1c.86.48,1.68,1.27,2.46,2.38s1.36,2.34,1.75,3.68.58,2.78.58,4.31Z"/>
  </g>
  <g>
    <path d="m12.77,215.68l4.65,11.6,4.65-11.6h2.43v14.22h-1.88v-5.54l.18-5.98-4.67,11.51h-1.44l-4.66-11.48.19,5.95v5.54h-1.88v-14.22h2.42Z"/>
    <path d="m31.91,230.1c-1.43,0-2.6-.47-3.5-1.41s-1.35-2.2-1.35-3.77v-.33c0-1.05.2-1.98.6-2.81s.96-1.47,1.68-1.93,1.5-.7,2.34-.7c1.37,0,2.44.45,3.2,1.36s1.14,2.2,1.14,3.89v.75h-7.16c.03,1.04.33,1.88.91,2.52s1.32.96,2.22.96c.64,0,1.18-.13,1.62-.39s.83-.61,1.16-1.04l1.1.86c-.89,1.36-2.21,2.04-3.98,2.04Zm-.22-9.47c-.73,0-1.34.27-1.84.8s-.8,1.27-.92,2.23h5.29v-.14c-.05-.92-.3-1.63-.74-2.13s-1.04-.76-1.8-.76Z"/>
    <path d="m43.23,220.95c-.27-.05-.57-.07-.89-.07-1.18,0-1.99.5-2.41,1.51v7.5h-1.81v-10.57h1.76l.03,1.22c.59-.94,1.43-1.42,2.52-1.42.35,0,.62.05.8.14v1.68Z"/>
    <path d="m44.46,224.53c0-1.65.38-2.96,1.14-3.93s1.77-1.46,3.03-1.46,2.29.46,3.02,1.37l.09-1.17h1.65v10.31c0,1.37-.41,2.44-1.22,3.23s-1.9,1.18-3.27,1.18c-.76,0-1.51-.16-2.24-.49s-1.29-.77-1.67-1.34l.94-1.08c.77.96,1.72,1.44,2.84,1.44.88,0,1.56-.25,2.06-.74s.74-1.19.74-2.09v-.91c-.72.83-1.71,1.25-2.96,1.25s-2.24-.5-3-1.49-1.15-2.35-1.15-4.07Zm1.82.21c0,1.19.24,2.13.73,2.81s1.17,1.02,2.05,1.02c1.14,0,1.98-.52,2.51-1.55v-4.82c-.55-1.01-1.38-1.51-2.49-1.51-.88,0-1.57.34-2.06,1.03s-.74,1.7-.74,3.04Z"/>
    <path d="m60.49,230.1c-1.43,0-2.6-.47-3.5-1.41s-1.35-2.2-1.35-3.77v-.33c0-1.05.2-1.98.6-2.81s.96-1.47,1.68-1.93,1.5-.7,2.34-.7c1.37,0,2.44.45,3.2,1.36s1.14,2.2,1.14,3.89v.75h-7.16c.03,1.04.33,1.88.91,2.52s1.32.96,2.22.96c.64,0,1.18-.13,1.62-.39s.83-.61,1.16-1.04l1.1.86c-.89,1.36-2.21,2.04-3.98,2.04Zm-.22-9.47c-.73,0-1.34.27-1.84.8s-.8,1.27-.92,2.23h5.29v-.14c-.05-.92-.3-1.63-.74-2.13s-1.04-.76-1.8-.76Z"/>
    <path d="m72.85,227.1c0-.49-.18-.87-.55-1.14s-1.01-.5-1.92-.7-1.64-.43-2.18-.7-.93-.6-1.19-.98-.39-.83-.39-1.35c0-.87.37-1.6,1.1-2.2s1.67-.9,2.81-.9c1.2,0,2.17.31,2.92.93s1.12,1.41,1.12,2.37h-1.82c0-.5-.21-.92-.63-1.28s-.95-.54-1.59-.54-1.17.14-1.54.43-.56.66-.56,1.12c0,.44.17.76.52.99s.97.43,1.87.63,1.63.44,2.19.72.97.62,1.25,1.01.41.87.41,1.44c0,.94-.38,1.7-1.13,2.27s-1.74.85-2.94.85c-.85,0-1.59-.15-2.25-.45s-1.16-.72-1.53-1.25-.55-1.12-.55-1.74h1.81c.03.61.28,1.09.73,1.44s1.05.53,1.79.53c.68,0,1.23-.14,1.65-.42s.62-.65.62-1.11Z"/>
    <path d="m76.54,224.52c0-1.04.2-1.97.61-2.79s.97-1.46,1.7-1.91,1.55-.67,2.49-.67c1.44,0,2.6.5,3.49,1.49s1.33,2.32,1.33,3.97v.13c0,1.03-.2,1.95-.59,2.77s-.96,1.45-1.69,1.91-1.57.68-2.52.68c-1.43,0-2.59-.5-3.48-1.49s-1.33-2.31-1.33-3.96v-.13Zm1.82.21c0,1.17.27,2.11.82,2.82s1.27,1.06,2.18,1.06,1.65-.36,2.19-1.08.81-1.73.81-3.02c0-1.16-.28-2.1-.83-2.82s-1.28-1.08-2.19-1.08-1.61.35-2.16,1.06-.82,1.73-.82,3.05Z"/>
    <path d="m93.53,220.95c-.27-.05-.57-.07-.89-.07-1.18,0-1.99.5-2.41,1.51v7.5h-1.81v-10.57h1.76l.03,1.22c.59-.94,1.43-1.42,2.52-1.42.35,0,.62.05.8.14v1.68Z"/>
    <path d="m98.13,216.77v2.56h1.97v1.4h-1.97v6.56c0,.42.09.74.26.95s.48.32.9.32c.21,0,.5-.04.86-.12v1.46c-.48.13-.94.19-1.39.19-.81,0-1.42-.24-1.83-.73s-.62-1.18-.62-2.08v-6.55h-1.92v-1.4h1.92v-2.56h1.81Z"/>
    <path d="m102.14,224.13c0-1.47.2-2.88.59-4.24s.98-2.58,1.76-3.69,1.59-1.89,2.43-2.34l.37,1.19c-.95.73-1.73,1.84-2.34,3.34s-.94,3.17-1,5.03v.83c0,2.51.45,4.69,1.37,6.54.55,1.11,1.21,1.97,1.97,2.6l-.37,1.1c-.87-.48-1.69-1.29-2.48-2.42-1.54-2.21-2.3-4.86-2.3-7.94Z"/>
    <path d="m117.18,226.18h-5.96l-1.34,3.72h-1.93l5.43-14.22h1.64l5.44,14.22h-1.92l-1.36-3.72Zm-5.39-1.53h4.83l-2.42-6.65-2.41,6.65Z"/>
    <path d="m125.83,215.13h-1.87v16.33h1.87v1.48h-3.68v-19.3h3.68v1.48Z"/>
    <path d="m135.31,229.9h-9.05l.21-1.38,5.24-5.1.96-.95c1.1-1.1,1.71-2.12,1.83-3.05.08-.72-.06-1.3-.42-1.75s-.88-.69-1.54-.72c-.85-.03-1.57.22-2.14.75s-.92,1.24-1.04,2.15h-1.75c.08-.86.35-1.64.81-2.31s1.05-1.19,1.79-1.55,1.54-.53,2.41-.51c1.18.03,2.11.38,2.81,1.07s.99,1.58.89,2.67c-.11,1.25-.83,2.57-2.16,3.95l-.9.91-4.57,4.35h6.87l-.23,1.47Z"/>
    <path d="m138.63,227.85c.32,0,.58.09.79.29s.31.46.3.78-.11.58-.32.78-.47.3-.78.32-.57-.08-.77-.27-.3-.45-.3-.77.1-.58.3-.8.46-.32.78-.34Z"/>
    <path d="m143.83,227.85c.32,0,.58.09.79.29s.31.46.3.78-.11.58-.32.78-.47.3-.78.32-.57-.08-.77-.27-.3-.45-.3-.77.1-.58.3-.8.46-.32.78-.34Z"/>
    <path d="m149.04,227.85c.32,0,.58.09.79.29s.31.46.3.78-.11.58-.32.78-.47.3-.78.32-.57-.08-.77-.27-.3-.45-.3-.77.1-.58.3-.8.46-.32.78-.34Z"/>
    <path d="m156.7,221.91h1.17c.86,0,1.58-.22,2.17-.67s.93-1.07,1.01-1.84c.08-.75-.06-1.35-.42-1.78s-.9-.66-1.59-.67c-.74-.01-1.37.2-1.89.65s-.83,1.05-.95,1.8h-1.75c.11-1.16.61-2.11,1.5-2.85s1.95-1.09,3.18-1.08c1.19.03,2.13.4,2.81,1.12s.97,1.67.88,2.85c-.06.67-.32,1.28-.77,1.84s-1.09,1.01-1.89,1.38c.64.26,1.13.67,1.45,1.24s.45,1.22.4,1.98c-.1,1.28-.61,2.31-1.53,3.1s-2.03,1.16-3.33,1.13c-1.22-.03-2.19-.4-2.91-1.13s-1.06-1.67-1.01-2.82h1.77c-.04.74.14,1.33.53,1.77s.96.68,1.7.71c.83.03,1.53-.21,2.08-.71s.87-1.17.95-2.01c.07-.77-.1-1.38-.53-1.81s-1.05-.66-1.89-.69h-1.36s.23-1.48.23-1.48Z"/>
    <path d="m163.72,213.65h3.69v19.3h-3.69v-1.48h1.88v-16.33h-1.88v-1.48Z"/>
    <path d="m174.48,224.23c0,1.45-.19,2.84-.57,4.17s-.96,2.56-1.75,3.69-1.61,1.93-2.47,2.4l-.38-1.1c1-.77,1.81-1.96,2.42-3.58s.92-3.41.93-5.39v-.31c0-1.37-.14-2.64-.43-3.81s-.69-2.23-1.2-3.16-1.09-1.66-1.72-2.18l.38-1.1c.86.48,1.68,1.27,2.46,2.38s1.36,2.34,1.75,3.68.58,2.78.58,4.31Z"/>
  </g>
  <g>
    <line class="cls-3" x1="183.02" y1="22.78" x2="277.24" y2="22.78"/>
    <polygon points="275.26 25.68 286.1 22.78 275.26 19.87 275.26 25.68"/>
  </g>
  <g>
    <polyline class="cls-3" points="183.02 132.43 417.24 132.43 417.24 99.65 457.56 99.65"/>
    <polygon points="455.58 102.55 466.42 99.65 455.58 96.74 455.58 102.55"/>
  </g>
  <g>
    <line class="cls-3" x1="183.02" y1="176.9" x2="206.47" y2="176.9"/>
    <polygon points="204.49 179.8 215.33 176.9 204.49 173.99 204.49 179.8"/>
  </g>
  <g>
    <polyline class="cls-3" points="183.02 220.24 304 220.24 304 176.2 319.39 176.2"/>
    <polygon points="317.41 179.11 328.25 176.2 317.41 173.3 317.41 179.11"/>
  </g>
  <g>
    <polyline class="cls-3" points="183.02 251.82 187.14 251.82 187.14 251.82 194.41 251.82"/>
    <polygon points="192.43 254.73 203.27 251.82 192.43 248.91 192.43 254.73"/>
  </g>
  <g>
    <polyline class="cls-3" points="183.02 283.68 242.36 283.68 242.36 251.82 250.86 251.82"/>
    <polygon points="248.88 254.73 259.72 251.82 248.88 248.91 248.88 254.73"/>
  </g>
  <g>
    <line class="cls-3" x1="183.02" y1="328.12" x2="206.8" y2="328.12"/>
    <polygon points="204.82 331.02 215.66 328.12 204.82 325.21 204.82 331.02"/>
  </g>
  <g>
    <line class="cls-3" x1="183.02" y1="403.91" x2="229.49" y2="403.91"/>
    <polygon points="227.51 406.81 238.35 403.91 227.51 401 227.51 406.81"/>
  </g>
  <g>
    <line class="cls-3" x1="183.02" y1="479.55" x2="277.24" y2="479.55"/>
    <polygon points="275.26 482.45 286.1 479.55 275.26 476.64 275.26 482.45"/>
  </g>
  <g>
    <polyline class="cls-3" points="229.57 99.65 209.41 99.65 209.41 99.65 183.02 99.65"/>
    <polygon points="227.59 96.74 238.43 99.65 227.59 102.55 227.59 96.74"/>
  </g>
</svg>